TitilliumWeb-Black.ufo
<glyph name="exclam" format="2">
  <advance width="290"/>
  <unicode hex="0021"/>
  <outline>
    <contour>
      <point x="38" y="244" type="line"/>
      <point x="252" y="244" type="line"/>
      <point x="266" y="670" type="line"/>
      <point x="24" y="670" type="line"/>
    </contour>
    <contour>
      <point x="31" y="0" type="line"/>
      <point x="259" y="0" type="line"/>
      <point x="259" y="198" type="line"/>
      <point x="31" y="198" type="line"/>
    </contour>
  </outline>
</glyph>
<glyph name="quotedbl" format="2">
  <advance width="544"/>
  <unicode hex="0022"/>
  <outline>
    <contour>
      <point x="323" y="420" type="line"/>
      <point x="499" y="420" type="line"/>
      <point x="530" y="670" type="line"/>
      <point x="291" y="670" type="line"/>
    </contour>
    <contour>
      <point x="45" y="420" type="line"/>
      <point x="221" y="420" type="line"/>
      <point x="252" y="670" type="line"/>
      <point x="13" y="670" type="line"/>
    </contour>
  </outline>
</glyph>
<glyph name="numbersign" format="2">
  <advance width="550"/>
  <unicode hex="0023"/>
  <outline>
    <contour>
      <point x="57" y="0" type="line"/>
      <point x="233" y="0" type="line"/>
      <point x="236" y="113" type="line"/>
      <point x="298" y="113" type="line"/>
      <point x="295" y="0" type="line"/>
      <point x="472" y="0" type="line"/>
      <point x="475" y="113" type="line"/>
      <point x="532" y="113" type="line"/>
      <point x="536" y="290" type="line"/>
      <point x="480" y="290" type="line"/>
      <point x="482" y="370" type="line"/>
      <point x="537" y="370" type="line"/>
      <point x="544" y="547" type="line"/>
      <point x="487" y="547" type="line"/>
      <point x="490" y="670" type="line"/>
      <point x="313" y="670" type="line"/>
      <point x="310" y="547" type="line"/>
      <point x="248" y="547" type="line"/>
      <point x="251" y="670" type="line"/>
      <point x="75" y="670" type="line"/>
      <point x="72" y="547" type="line"/>
      <point x="19" y="547" type="line"/>
      <point x="12" y="370" type="line"/>
      <point x="67" y="370" type="line"/>
      <point x="65" y="290" type="line"/>
      <point x="12" y="290" type="line"/>
      <point x="5" y="113" type="line"/>
      <point x="60" y="113" type="line"/>
    </contour>
    <contour>
      <point x="241" y="290" type="line"/>
      <point x="243" y="370" type="line"/>
      <point x="305" y="370" type="line"/>
      <point x="303" y="290" type="line"/>
    </contour>
  </outline>
</glyph>
<glyph name="quotesingle" format="2">
  <advance width="266"/>
  <unicode hex="0027"/>
  <outline>
    <contour>
      <point x="45" y="420" type="line"/>
      <point x="221" y="420" type="line"/>
      <point x="252" y="670" type="line"/>
      <point x="13" y="670" type="line"/>
    </contour>
  </outline>
</glyph>
<glyph name="parenright" format="2">
  <advance width="326"/>
  <unicode hex="0029"/>
  <outline>
    <contour>
      <point x="211" y="-120" type="line"/>
      <point x="254" y="-39"/>
      <point x="310" y="139"/>
      <point x="310" y="329" type="curve" smooth="yes"/>
      <point x="310" y="519"/>
      <point x="254" y="684"/>
      <point x="211" y="755" type="curve"/>
      <point x="8" y="755" type="line"/>
      <point x="40" y="665"/>
      <point x="83" y="487"/>
      <point x="83" y="329" type="curve" smooth="yes"/>
      <point x="83" y="169"/>
      <point x="40" y="-21"/>
      <point x="8" y="-120" type="curve"/>
    </contour>
  </outline>
</glyph>
<glyph name="asterisk" format="2">
  <advance width="415"/>
  <unicode hex="002A"/>
  <outline>
    <contour>
      <point x="202" y="340" type="line"/>
      <point x="327" y="381" type="line"/>
      <point x="289" y="477" type="line"/>
      <point x="390" y="469" type="line"/>
      <point x="390" y="603" type="line"/>
      <point x="288" y="595" type="line"/>
      <point x="326" y="689" type="line"/>
      <point x="199" y="730" type="line"/>
      <point x="175" y="631" type="line"/>
      <point x="97" y="696" type="line"/>
      <point x="19" y="588" type="line"/>
      <point x="106" y="534" type="line"/>
      <point x="20" y="480" type="line"/>
      <point x="98" y="373" type="line"/>
      <point x="176" y="438" type="line"/>
    </contour>
  </outline>
</glyph>
<glyph name="comma" format="2">
  <advance width="289"/>
  <unicode hex="002C"/>
  <outline>
    <contour>
      <point x="13" y="-103" type="line"/>
      <point x="198" y="-103" type="line"/>
      <point x="277" y="193" type="line"/>
      <point x="35" y="193" type="line"/>
    </contour>
  </outline>
</glyph>
<glyph name="two" format="2">
  <advance width="550"/>
  <unicode hex="0032"/>
  <outline>
    <contour>
      <point x="43" y="0" type="line"/>
      <point x="501" y="0" type="line"/>
      <point x="501" y="180" type="line"/>
      <point x="296" y="180" type="line"/>
      <point x="363" y="227" type="line" smooth="yes"/>
      <point x="472" y="303"/>
      <point x="505" y="359"/>
      <point x="505" y="474" type="curve" smooth="yes"/>
      <point x="505" y="606"/>
      <point x="412" y="674"/>
      <point x="262" y="674" type="curve" smooth="yes"/>
      <point x="180" y="674"/>
      <point x="90" y="653"/>
      <point x="45" y="637" type="curve"/>
      <point x="55" y="466" type="line"/>
      <point x="89" y="472"/>
      <point x="151" y="481"/>
      <point x="198" y="481" type="curve" smooth="yes"/>
      <point x="259" y="481"/>
      <point x="276" y="477"/>
      <point x="276" y="441" type="curve" smooth="yes"/>
      <point x="276" y="389"/>
      <point x="223" y="347"/>
      <point x="130" y="256" type="curve" smooth="yes"/>
      <point x="43" y="172" type="line"/>
    </contour>
  </outline>
</glyph>
<glyph name="three" format="2">
  <advance width="550"/>
  <unicode hex="0033"/>
  <outline>
    <contour>
      <point x="248" y="-13" type="curve" smooth="yes"/>
      <point x="419" y="-13"/>
      <point x="514" y="33"/>
      <point x="514" y="207" type="curve" smooth="yes"/>
      <point x="514" y="281"/>
      <point x="489" y="310"/>
      <point x="444" y="345" type="curve"/>
      <point x="489" y="377"/>
      <point x="505" y="408"/>
      <point x="505" y="482" type="curve" smooth="yes"/>
      <point x="505" y="628"/>
      <point x="414" y="672"/>
      <point x="225" y="672" type="curve" smooth="yes"/>
      <point x="174" y="672"/>
      <point x="89" y="655"/>
      <point x="40" y="643" type="curve"/>
      <point x="45" y="472" type="line"/>
      <point x="86" y="476"/>
      <point x="159" y="481"/>
      <point x="209" y="481" type="curve" smooth="yes"/>
      <point x="251" y="481"/>
      <point x="278" y="475"/>
      <point x="278" y="451" type="curve" smooth="yes"/>
      <point x="278" y="429"/>
      <point x="263" y="420"/>
      <point x="224" y="420" type="curve" smooth="yes"/>
      <point x="92" y="420" type="line"/>
      <point x="92" y="243" type="line"/>
      <point x="233" y="243" type="line"/>
      <point x="274" y="239"/>
      <point x="286" y="231"/>
      <point x="286" y="210" type="curve" smooth="yes"/>
      <point x="286" y="180"/>
      <point x="259" y="178"/>
      <point x="217" y="178" type="curve" smooth="yes"/>
      <point x="172" y="178"/>
      <point x="90" y="184"/>
      <point x="41" y="188" type="curve"/>
      <point x="35" y="13" type="line"/>
      <point x="87" y="2"/>
      <point x="180" y="-13"/>
    </contour>
  </outline>
</glyph>
<glyph name="four" format="2">
  <advance width="550"/>
  <unicode hex="0034"/>
  <outline>
    <contour>
      <point x="289" y="0" type="line"/>
      <point x="516" y="0" type="line"/>
      <point x="516" y="80" type="line"/>
      <point x="541" y="80" type="line"/>
      <point x="541" y="268" type="line"/>
      <point x="516" y="268" type="line"/>
      <point x="516" y="388" type="line"/>
      <point x="310" y="381" type="line"/>
      <point x="290" y="268" type="line"/>
      <point x="241" y="268" type="line"/>
      <point x="370" y="659" type="line"/>
      <point x="108" y="659" type="line"/>
      <point x="18" y="242" type="line"/>
      <point x="18" y="80" type="line"/>
      <point x="289" y="80" type="line"/>
    </contour>
  </outline>
</glyph>
<glyph name="five" format="2">
  <advance width="550"/>
  <unicode hex="0035"/>
  <outline>
    <contour>
      <point x="281" y="-13" type="curve" smooth="yes"/>
      <point x="430" y="-13"/>
      <point x="531" y="48"/>
      <point x="531" y="217" type="curve" smooth="yes"/>
      <point x="531" y="382"/>
      <point x="454" y="430"/>
      <point x="307" y="430" type="curve" smooth="yes"/>
      <point x="273" y="430"/>
      <point x="236" y="421"/>
      <point x="218" y="415" type="curve"/>
      <point x="223" y="459" type="line"/>
      <point x="506" y="459" type="line"/>
      <point x="506" y="659" type="line"/>
      <point x="48" y="659" type="line"/>
      <point x="34" y="230" type="line"/>
      <point x="182" y="212" type="line"/>
      <point x="201" y="217"/>
      <point x="236" y="224"/>
      <point x="262" y="224" type="curve" smooth="yes"/>
      <point x="296" y="224"/>
      <point x="310" y="216"/>
      <point x="310" y="196" type="curve" smooth="yes"/>
      <point x="310" y="177"/>
      <point x="291" y="169"/>
      <point x="259" y="169" type="curve" smooth="yes"/>
      <point x="193" y="169"/>
      <point x="92" y="180"/>
      <point x="34" y="189" type="curve"/>
      <point x="17" y="26" type="line"/>
      <point x="85" y="9"/>
      <point x="204" y="-13"/>
    </contour>
  </outline>
</glyph>
<glyph name="six" format="2">
  <advance width="550"/>
  <unicode hex="0036"/>
  <outline>
    <contour>
      <point x="284" y="-13" type="curve" smooth="yes"/>
      <point x="434" y="-13"/>
      <point x="535" y="56"/>
      <point x="535" y="212" type="curve" smooth="yes"/>
      <point x="535" y="370"/>
      <point x="465" y="439"/>
      <point x="313" y="439" type="curve" smooth="yes"/>
      <point x="292" y="439"/>
      <point x="260" y="433"/>
      <point x="230" y="421" type="curve"/>
      <point x="234" y="464"/>
      <point x="252" y="489"/>
      <point x="306" y="489" type="curve" smooth="yes"/>
      <point x="367" y="489"/>
      <point x="454" y="479"/>
      <point x="502" y="472" type="curve"/>
      <point x="518" y="638" type="line" name="hr00"/>
      <point x="459" y="653"/>
      <point x="357" y="672"/>
      <point x="296" y="672" type="curve" smooth="yes"/>
      <point x="139" y="672"/>
      <point x="16" y="600"/>
      <point x="16" y="323" type="curve" smooth="yes"/>
      <point x="16" y="102"/>
      <point x="98" y="-13"/>
    </contour>
    <contour>
      <point x="284" y="165" type="curve" smooth="yes"/>
      <point x="237" y="165"/>
      <point x="229" y="193"/>
      <point x="229" y="250" type="curve"/>
      <point x="238" y="255"/>
      <point x="260" y="262"/>
      <point x="286" y="262" type="curve" smooth="yes"/>
      <point x="315" y="262"/>
      <point x="331" y="249"/>
      <point x="331" y="214" type="curve" smooth="yes"/>
      <point x="331" y="185"/>
      <point x="319" y="165"/>
    </contour>
  </outline>
</glyph>
<glyph name="seven" format="2">
  <advance width="550"/>
  <unicode hex="0037"/>
  <outline>
    <contour>
      <point x="325" y="-13" type="line"/>
      <point x="501" y="438" type="line"/>
      <point x="501" y="659" type="line"/>
      <point x="49" y="659" type="line"/>
      <point x="49" y="449" type="line"/>
      <point x="267" y="449" type="line"/>
      <point x="267" y="424" type="line"/>
      <point x="101" y="33" type="line"/>
    </contour>
  </outline>
</glyph>
<glyph name="eight" format="2">
  <advance width="550"/>
  <unicode hex="0038"/>
  <outline>
    <contour>
      <point x="274" y="-13" type="curve" smooth="yes"/>
      <point x="414" y="-13"/>
      <point x="536" y="26"/>
      <point x="536" y="175" type="curve" smooth="yes"/>
      <point x="536" y="268"/>
      <point x="519" y="301"/>
      <point x="450" y="335" type="curve"/>
      <point x="511" y="371"/>
      <point x="526" y="409"/>
      <point x="526" y="493" type="curve" smooth="yes"/>
      <point x="526" y="638"/>
      <point x="416" y="672"/>
      <point x="274" y="672" type="curve" smooth="yes"/>
      <point x="132" y="672"/>
      <point x="24" y="629"/>
      <point x="24" y="494" type="curve" smooth="yes"/>
      <point x="24" y="408"/>
      <point x="41" y="371"/>
      <point x="99" y="336" type="curve"/>
      <point x="37" y="299"/>
      <point x="12" y="268"/>
      <point x="12" y="177" type="curve" smooth="yes"/>
      <point x="12" y="26"/>
      <point x="134" y="-13"/>
    </contour>
    <contour>
      <point x="274" y="156" type="curve" smooth="yes"/>
      <point x="247" y="156"/>
      <point x="234" y="169"/>
      <point x="234" y="200" type="curve" smooth="yes"/>
      <point x="234" y="227"/>
      <point x="249" y="250"/>
      <point x="261" y="259" type="curve"/>
      <point x="288" y="259" type="line"/>
      <point x="299" y="249"/>
      <point x="314" y="226"/>
      <point x="314" y="200" type="curve" smooth="yes"/>
      <point x="314" y="166"/>
      <point x="301" y="156"/>
    </contour>
    <contour>
      <point x="261" y="410" type="line"/>
      <point x="253" y="418"/>
      <point x="242" y="437"/>
      <point x="242" y="460" type="curve" smooth="yes"/>
      <point x="242" y="488"/>
      <point x="247" y="505"/>
      <point x="273" y="505" type="curve" smooth="yes"/>
      <point x="299" y="505"/>
      <point x="307" y="489"/>
      <point x="307" y="460" type="curve" smooth="yes"/>
      <point x="307" y="438"/>
      <point x="296" y="419"/>
      <point x="288" y="410" type="curve"/>
    </contour>
  </outline>
</glyph>
<glyph name="colon" format="2">
  <advance width="288"/>
  <unicode hex="003A"/>
  <outline>
    <contour>
      <point x="30" y="265" type="line"/>
      <point x="258" y="265" type="line"/>
      <point x="258" y="464" type="line"/>
      <point x="30" y="464" type="line"/>
    </contour>
    <contour>
      <point x="30" y="0" type="line"/>
      <point x="258" y="0" type="line"/>
      <point x="258" y="199" type="line"/>
      <point x="30" y="199" type="line"/>
    </contour>
  </outline>
</glyph>
<glyph name="semicolon" format="2">
  <advance width="294"/>
  <unicode hex="003B"/>
  <outline>
    <contour>
      <point x="13" y="-103" type="line"/>
      <point x="198" y="-103" type="line"/>
      <point x="277" y="193" type="line"/>
      <point x="35" y="193" type="line"/>
    </contour>
    <contour>
      <point x="38" y="265" type="line"/>
      <point x="266" y="265" type="line"/>
      <point x="266" y="464" type="line"/>
      <point x="38" y="464" type="line"/>
    </contour>
  </outline>
</glyph>
<glyph name="equal" format="2">
  <advance width="550"/>
  <unicode hex="003D"/>
  <outline>
    <contour>
      <point x="59" y="282" type="line"/>
      <point x="491" y="282" type="line"/>
      <point x="491" y="452" type="line"/>
      <point x="59" y="452" type="line"/>
    </contour>
    <contour>
      <point x="59" y="57" type="line"/>
      <point x="491" y="57" type="line"/>
      <point x="491" y="227" type="line"/>
      <point x="59" y="227" type="line"/>
    </contour>
  </outline>
</glyph>
<glyph name="greater" format="2">
  <advance width="550"/>
  <unicode hex="003E"/>
  <outline>
    <contour>
      <point x="87" y="-13" type="line"/>
      <point x="473" y="145" type="line"/>
      <point x="473" y="366" type="line"/>
      <point x="87" y="517" type="line"/>
      <point x="87" y="293" type="line"/>
      <point x="326" y="261" type="line"/>
      <point x="87" y="218" type="line"/>
    </contour>
  </outline>
</glyph>
<glyph name="question" format="2">
  <advance width="473"/>
  <unicode hex="003F"/>
  <outline>
    <contour>
      <point x="113" y="217" type="curve"/>
      <point x="288" y="217" type="line"/>
      <point x="289" y="236" type="line" smooth="yes"/>
      <point x="290" y="253"/>
      <point x="307" y="274"/>
      <point x="368" y="317" type="curve" smooth="yes"/>
      <point x="432" y="362"/>
      <point x="456" y="392"/>
      <point x="456" y="496" type="curve" smooth="yes"/>
      <point x="456" y="648"/>
      <point x="389" y="703"/>
      <point x="232" y="703" type="curve" smooth="yes"/>
      <point x="158" y="703"/>
      <point x="66" y="682"/>
      <point x="17" y="666" type="curve"/>
      <point x="24" y="509" type="line"/>
      <point x="57" y="515"/>
      <point x="118" y="523"/>
      <point x="167" y="523" type="curve" smooth="yes"/>
      <point x="214" y="523"/>
      <point x="230" y="512"/>
      <point x="230" y="488" type="curve" smooth="yes"/>
      <point x="230" y="460"/>
      <point x="223" y="453"/>
      <point x="177" y="419" type="curve" smooth="yes"/>
      <point x="105" y="366"/>
      <point x="90" y="344"/>
      <point x="90" y="296" type="curve" smooth="yes"/>
      <point x="90" y="261"/>
      <point x="103" y="230"/>
    </contour>
    <contour>
      <point x="88" y="0" type="line"/>
      <point x="316" y="0" type="line"/>
      <point x="316" y="180" type="line"/>
      <point x="88" y="180" type="line"/>
    </contour>
  </outline>
</glyph>
<glyph name="at" format="2">
  <advance width="1027"/>
  <unicode hex="0040"/>
  <outline>
    <contour>
      <point x="517" y="-219" type="curve" smooth="yes"/>
      <point x="552" y="-219"/>
      <point x="621" y="-214"/>
      <point x="663" y="-210" type="curve"/>
      <point x="660" y="-57" type="line"/>
      <point x="616" y="-61"/>
      <point x="546" y="-67"/>
      <point x="517" y="-67" type="curve" smooth="yes"/>
      <point x="260" y="-67"/>
      <point x="180" y="-21"/>
      <point x="180" y="261" type="curve" smooth="yes"/>
      <point x="180" y="530"/>
      <point x="300" y="577"/>
      <point x="527" y="577" type="curve" smooth="yes"/>
      <point x="759" y="577"/>
      <point x="841" y="530"/>
      <point x="841" y="316" type="curve" smooth="yes"/>
      <point x="841" y="298" type="line" smooth="yes"/>
      <point x="841" y="189"/>
      <point x="836" y="168"/>
      <point x="806" y="168" type="curve" smooth="yes"/>
      <point x="777" y="168"/>
      <point x="765" y="190"/>
      <point x="765" y="300" type="curve" smooth="yes"/>
      <point x="765" y="492" type="line"/>
      <point x="541" y="492" type="line"/>
      <point x="541" y="467" type="line"/>
      <point x="520" y="483"/>
      <point x="474" y="505"/>
      <point x="423" y="505" type="curve" smooth="yes"/>
      <point x="304" y="505"/>
      <point x="239" y="425"/>
      <point x="239" y="245" type="curve" smooth="yes"/>
      <point x="239" y="75"/>
      <point x="299" y="0"/>
      <point x="448" y="0" type="curve" smooth="yes"/>
      <point x="506" y="0"/>
      <point x="560" y="24"/>
      <point x="601" y="54" type="curve"/>
      <point x="638" y="17"/>
      <point x="693" y="0"/>
      <point x="775" y="0" type="curve" smooth="yes"/>
      <point x="956" y="0"/>
      <point x="1008" y="70"/>
      <point x="1008" y="298" type="curve" smooth="yes"/>
      <point x="1008" y="315" type="line" smooth="yes"/>
      <point x="1008" y="619"/>
      <point x="852" y="729"/>
      <point x="527" y="729" type="curve" smooth="yes"/>
      <point x="211" y="729"/>
      <point x="23" y="619"/>
      <point x="23" y="261" type="curve" smooth="yes"/>
      <point x="23" y="-80"/>
      <point x="127" y="-219"/>
    </contour>
    <contour>
      <point x="500" y="178" type="curve" smooth="yes"/>
      <point x="474" y="178"/>
      <point x="465" y="195"/>
      <point x="465" y="250" type="curve" smooth="yes"/>
      <point x="465" y="312"/>
      <point x="477" y="324"/>
      <point x="513" y="324" type="curve" smooth="yes"/>
      <point x="522" y="324"/>
      <point x="535" y="322"/>
      <point x="541" y="320" type="curve"/>
      <point x="541" y="279" type="line" smooth="yes"/>
      <point x="541" y="246"/>
      <point x="543" y="216"/>
      <point x="546" y="189" type="curve"/>
      <point x="527" y="183"/>
      <point x="510" y="178"/>
    </contour>
  </outline>
</glyph>
<glyph name="A" format="2">
  <advance width="639"/>
  <unicode hex="0041"/>
  <outline>
    <contour>
      <point x="-5" y="0" type="line"/>
      <point x="223" y="0" type="line"/>
      <point x="239" y="77" type="line"/>
      <point x="392" y="77" type="line"/>
      <point x="411" y="0" type="line"/>
      <point x="645" y="0" type="line"/>
      <point x="494" y="670" type="line"/>
      <point x="143" y="670" type="line"/>
    </contour>
    <contour>
      <point x="269" y="254" type="line"/>
      <point x="307" y="488" type="line"/>
      <point x="332" y="488" type="line"/>
      <point x="368" y="254" type="line"/>
    </contour>
  </outline>
</glyph>
<glyph name="B" format="2">
  <advance width="607"/>
  <unicode hex="0042"/>
  <outline>
    <contour>
      <point x="30" y="0" type="line"/>
      <point x="337" y="0" type="line" smooth="yes"/>
      <point x="473" y="0"/>
      <point x="595" y="39"/>
      <point x="595" y="190" type="curve" smooth="yes"/>
      <point x="595" y="288"/>
      <point x="571" y="316"/>
      <point x="509" y="343" type="curve"/>
      <point x="568" y="385"/>
      <point x="578" y="424"/>
      <point x="578" y="504" type="curve" smooth="yes"/>
      <point x="578" y="632"/>
      <point x="469" y="670"/>
      <point x="333" y="670" type="curve" smooth="yes"/>
      <point x="30" y="670" type="line"/>
    </contour>
    <contour>
      <point x="262" y="155" type="line"/>
      <point x="262" y="265" type="line"/>
      <point x="316" y="265" type="line" smooth="yes"/>
      <point x="361" y="265"/>
      <point x="375" y="251"/>
      <point x="375" y="211" type="curve" smooth="yes"/>
      <point x="375" y="166"/>
      <point x="362" y="155"/>
      <point x="316" y="155" type="curve" smooth="yes"/>
    </contour>
    <contour>
      <point x="262" y="410" type="line"/>
      <point x="262" y="517" type="line"/>
      <point x="313" y="517" type="line" smooth="yes"/>
      <point x="351" y="517"/>
      <point x="368" y="503"/>
      <point x="368" y="466" type="curve" smooth="yes"/>
      <point x="368" y="427"/>
      <point x="354" y="410"/>
      <point x="314" y="410" type="curve" smooth="yes"/>
    </contour>
  </outline>
</glyph>
<glyph name="E" format="2">
  <advance width="549"/>
  <unicode hex="0045"/>
  <outline>
    <contour>
      <point x="30" y="0" type="line"/>
      <point x="532" y="0" type="line"/>
      <point x="532" y="185" type="line"/>
      <point x="262" y="185" type="line"/>
      <point x="262" y="245" type="line"/>
      <point x="472" y="245" type="line"/>
      <point x="472" y="428" type="line"/>
      <point x="262" y="428" type="line"/>
      <point x="262" y="485" type="line"/>
      <point x="532" y="485" type="line"/>
      <point x="532" y="670" type="line"/>
      <point x="30" y="670" type="line"/>
    </contour>
  </outline>
</glyph>
<glyph name="H" format="2">
  <advance width="655"/>
  <unicode hex="0048"/>
  <outline>
    <contour>
      <point x="30" y="0" type="line"/>
      <point x="262" y="0" type="line"/>
      <point x="262" y="234" type="line"/>
      <point x="393" y="234" type="line"/>
      <point x="393" y="0" type="line"/>
      <point x="625" y="0" type="line"/>
      <point x="625" y="670" type="line"/>
      <point x="393" y="670" type="line"/>
      <point x="393" y="423" type="line"/>
      <point x="262" y="423" type="line"/>
      <point x="262" y="670" type="line"/>
      <point x="30" y="670" type="line"/>
    </contour>
  </outline>
</glyph>
<glyph name="K" format="2">
  <advance width="609"/>
  <unicode hex="004B"/>
  <anchor x="291" y="0" name="bottom"/>
  <outline>
    <contour>
      <point x="30" y="0" type="line"/>
      <point x="262" y="0" type="line"/>
      <point x="262" y="223" type="line"/>
      <point x="303" y="223" type="line"/>
      <point x="384" y="0" type="line"/>
      <point x="617" y="0" type="line"/>
      <point x="500" y="346" type="line"/>
      <point x="607" y="670" type="line"/>
      <point x="377" y="670" type="line"/>
      <point x="302" y="433" type="line"/>
      <point x="262" y="433" type="line"/>
      <point x="262" y="670" type="line"/>
      <point x="30" y="670" type="line"/>
    </contour>
  </outline>
</glyph>
<glyph name="M" format="2">
  <advance width="855"/>
  <unicode hex="004D"/>
  <outline>
    <contour>
      <point x="30" y="0" type="line"/>
      <point x="262" y="0" type="line"/>
      <point x="262" y="345" type="line"/>
      <point x="273" y="345" type="line"/>
      <point x="330" y="7" type="line"/>
      <point x="524" y="7" type="line"/>
      <point x="582" y="345" type="line"/>
      <point x="593" y="345" type="line"/>
      <point x="593" y="0" type="line"/>
      <point x="825" y="0" type="line"/>
      <point x="825" y="670" type="line"/>
      <point x="470" y="670" type="line"/>
      <point x="427" y="414" type="line"/>
      <point x="375" y="670" type="line"/>
      <point x="30" y="670" type="line"/>
    </contour>
  </outline>
</glyph>
<glyph name="O" format="2">
  <advance width="670"/>
  <unicode hex="004F"/>
  <outline>
    <contour>
      <point x="335" y="-13" type="curve" smooth="yes"/>
      <point x="558" y="-13"/>
      <point x="654" y="91"/>
      <point x="654" y="335" type="curve" smooth="yes"/>
      <point x="654" y="579"/>
      <point x="558" y="683"/>
      <point x="335" y="683" type="curve" smooth="yes"/>
      <point x="112" y="683"/>
      <point x="16" y="579"/>
      <point x="16" y="335" type="curve" smooth="yes"/>
      <point x="16" y="91"/>
      <point x="115" y="-13"/>
    </contour>
    <contour>
      <point x="335" y="175" type="curve" smooth="yes"/>
      <point x="261" y="175"/>
      <point x="250" y="232"/>
      <point x="250" y="335" type="curve" smooth="yes"/>
      <point x="250" y="438"/>
      <point x="261" y="495"/>
      <point x="335" y="495" type="curve" smooth="yes"/>
      <point x="412" y="495"/>
      <point x="420" y="438"/>
      <point x="420" y="335" type="curve" smooth="yes"/>
      <point x="420" y="233"/>
      <point x="411" y="175"/>
    </contour>
  </outline>
</glyph>
<glyph name="P" format="2">
  <advance width="612"/>
  <unicode hex="0050"/>
  <outline>
    <contour>
      <point x="30" y="0" type="line"/>
      <point x="262" y="0" type="line"/>
      <point x="262" y="142" type="line"/>
      <point x="293" y="142" type="line" smooth="yes"/>
      <point x="493" y="142"/>
      <point x="597" y="198"/>
      <point x="597" y="409" type="curve" smooth="yes"/>
      <point x="597" y="620"/>
      <point x="492" y="670"/>
      <point x="293" y="670" type="curve" smooth="yes"/>
      <point x="30" y="670" type="line"/>
    </contour>
    <contour>
      <point x="262" y="325" type="line"/>
      <point x="262" y="487" type="line"/>
      <point x="283" y="487" type="line" smooth="yes"/>
      <point x="341" y="487"/>
      <point x="363" y="472"/>
      <point x="363" y="408" type="curve" smooth="yes"/>
      <point x="363" y="347"/>
      <point x="340" y="325"/>
      <point x="283" y="325" type="curve" smooth="yes"/>
    </contour>
  </outline>
</glyph>
<glyph name="U" format="2">
  <advance width="641"/>
  <unicode hex="0055"/>
  <outline>
    <contour>
      <point x="321" y="-13" type="curve" smooth="yes"/>
      <point x="516" y="-13"/>
      <point x="615" y="49"/>
      <point x="615" y="244" type="curve" smooth="yes"/>
      <point x="615" y="670" type="line"/>
      <point x="383" y="670" type="line"/>
      <point x="383" y="231" type="line" smooth="yes"/>
      <point x="383" y="193"/>
      <point x="367" y="178"/>
      <point x="321" y="178" type="curve" smooth="yes"/>
      <point x="275" y="178"/>
      <point x="258" y="193"/>
      <point x="258" y="231" type="curve" smooth="yes"/>
      <point x="258" y="670" type="line"/>
      <point x="26" y="670" type="line"/>
      <point x="26" y="240" type="line" smooth="yes"/>
      <point x="26" y="45"/>
      <point x="126" y="-13"/>
    </contour>
  </outline>
</glyph>
<glyph name="V" format="2">
  <advance width="598"/>
  <unicode hex="0056"/>
  <outline>
    <contour>
      <point x="129" y="0" type="line"/>
      <point x="471" y="0" type="line"/>
      <point x="602" y="670" type="line"/>
      <point x="356" y="670" type="line"/>
      <point x="309" y="234" type="line"/>
      <point x="291" y="234" type="line"/>
      <point x="239" y="670" type="line"/>
      <point x="-7" y="670" type="line"/>
    </contour>
  </outline>
</glyph>
<glyph name="W" format="2">
  <advance width="915"/>
  <unicode hex="0057"/>
  <outline>
    <contour>
      <point x="85" y="0" type="line"/>
      <point x="416" y="0" type="line"/>
      <point x="450" y="413" type="line"/>
      <point x="460" y="413" type="line"/>
      <point x="493" y="0" type="line"/>
      <point x="832" y="0" type="line"/>
      <point x="906" y="670" type="line"/>
      <point x="673" y="670" type="line"/>
      <point x="653" y="234" type="line"/>
      <point x="635" y="234" type="line"/>
      <point x="585" y="660" type="line"/>
      <point x="332" y="660" type="line"/>
      <point x="287" y="234" type="line"/>
      <point x="269" y="234" type="line"/>
      <point x="237" y="670" type="line"/>
      <point x="6" y="670" type="line"/>
    </contour>
  </outline>
</glyph>
<glyph name="X" format="2">
  <advance width="583"/>
  <unicode hex="0058"/>
  <outline>
    <contour>
      <point x="-8" y="0" type="line"/>
      <point x="228" y="0" type="line"/>
      <point x="289" y="178" type="line"/>
      <point x="348" y="0" type="line"/>
      <point x="586" y="0" type="line"/>
      <point x="450" y="351" type="line"/>
      <point x="595" y="670" type="line"/>
      <point x="367" y="670" type="line"/>
      <point x="289" y="486" type="line"/>
      <point x="228" y="670" type="line"/>
      <point x="-8" y="670" type="line"/>
      <point x="135" y="321" type="line"/>
    </contour>
  </outline>
</glyph>
<glyph name="Y" format="2">
  <advance width="590"/>
  <unicode hex="0059"/>
  <outline>
    <contour>
      <point x="178" y="0" type="line"/>
      <point x="410" y="0" type="line"/>
      <point x="410" y="210" type="line"/>
      <point x="606" y="670" type="line"/>
      <point x="361" y="670" type="line"/>
      <point x="296" y="473" type="line"/>
      <point x="233" y="670" type="line"/>
      <point x="-13" y="670" type="line"/>
      <point x="178" y="210" type="line"/>
    </contour>
  </outline>
</glyph>
<glyph name="Z" format="2">
  <advance width="569"/>
  <unicode hex="005A"/>
  <outline>
    <contour>
      <point x="19" y="0" type="line"/>
      <point x="549" y="0" type="line"/>
      <point x="549" y="189" type="line"/>
      <point x="332" y="189" type="line"/>
      <point x="332" y="206" type="line"/>
      <point x="549" y="481" type="line"/>
      <point x="549" y="670" type="line"/>
      <point x="19" y="670" type="line"/>
      <point x="19" y="481" type="line"/>
      <point x="241" y="481" type="line"/>
      <point x="241" y="464" type="line"/>
      <point x="19" y="180" type="line"/>
    </contour>
  </outline>
</glyph>
<glyph name="backslash" format="2">
  <advance width="550"/>
  <unicode hex="005C"/>
  <outline>
    <contour>
      <point x="318" y="-74" type="line"/>
      <point x="535" y="-30" type="line"/>
      <point x="232" y="720" type="line"/>
      <point x="15" y="676" type="line"/>
    </contour>
  </outline>
</glyph>
<glyph name="asciicircum" format="2">
  <advance width="633"/>
  <unicode hex="005E"/>
  <outline>
    <contour>
      <point x="46" y="313" type="line"/>
      <point x="256" y="313" type="line"/>
      <point x="319" y="530" type="line"/>
      <point x="378" y="313" type="line"/>
      <point x="588" y="313" type="line"/>
      <point x="444" y="670" type="line"/>
      <point x="190" y="670" type="line"/>
    </contour>
  </outline>
</glyph>
<glyph name="a" format="2">
  <advance width="557"/>
  <unicode hex="0061"/>
  <outline>
    <contour>
      <point x="195" y="-13" type="curve" smooth="yes"/>
      <point x="255" y="-13"/>
      <point x="312" y="7"/>
      <point x="339" y="22" type="curve"/>
      <point x="349" y="7"/>
      <point x="382" y="-13"/>
      <point x="436" y="-13" type="curve" smooth="yes"/>
      <point x="454" y="-13"/>
      <point x="505" y="-6"/>
      <point x="539" y="-1" type="curve"/>
      <point x="542" y="141" type="line"/>
      <point x="535" y="143"/>
      <point x="522" y="149"/>
      <point x="518" y="152" type="curve"/>
      <point x="518" y="342" type="line" smooth="yes"/>
      <point x="518" y="487"/>
      <point x="418" y="518"/>
      <point x="273" y="518" type="curve" smooth="yes"/>
      <point x="193" y="518"/>
      <point x="89" y="498"/>
      <point x="32" y="483" type="curve"/>
      <point x="37" y="331" type="line"/>
      <point x="91" y="337"/>
      <point x="186" y="344"/>
      <point x="251" y="344" type="curve" smooth="yes"/>
      <point x="277" y="344"/>
      <point x="294" y="339"/>
      <point x="294" y="325" type="curve" smooth="yes"/>
      <point x="294" y="316" type="line"/>
      <point x="222" y="313" type="line" smooth="yes"/>
      <point x="92" y="308"/>
      <point x="10" y="288"/>
      <point x="10" y="157" type="curve" smooth="yes"/>
      <point x="10" y="38"/>
      <point x="69" y="-13"/>
    </contour>
    <contour>
      <point x="256" y="141" type="curve" smooth="yes"/>
      <point x="240" y="141"/>
      <point x="234" y="149"/>
      <point x="234" y="163" type="curve" smooth="yes"/>
      <point x="234" y="179"/>
      <point x="244" y="190"/>
      <point x="260" y="191" type="curve" smooth="yes"/>
      <point x="294" y="193" type="line"/>
      <point x="294" y="156" type="line"/>
      <point x="287" y="150"/>
      <point x="271" y="141"/>
    </contour>
  </outline>
</glyph>
<glyph name="b" format="2">
  <advance width="569"/>
  <unicode hex="0062"/>
  <outline>
    <contour>
      <point x="279" y="-13" type="curve" smooth="yes"/>
      <point x="489" y="-13"/>
      <point x="553" y="58"/>
      <point x="553" y="261" type="curve" smooth="yes"/>
      <point x="553" y="412"/>
      <point x="503" y="518"/>
      <point x="355" y="518" type="curve" smooth="yes"/>
      <point x="327" y="518"/>
      <point x="279" y="509"/>
      <point x="251" y="502" type="curve"/>
      <point x="251" y="690" type="line"/>
      <point x="27" y="690" type="line"/>
      <point x="27" y="10" type="line"/>
      <point x="101" y="0"/>
      <point x="220" y="-13"/>
    </contour>
    <contour>
      <point x="283" y="168" type="curve" smooth="yes"/>
      <point x="269" y="168"/>
      <point x="257" y="170"/>
      <point x="251" y="171" type="curve"/>
      <point x="251" y="330" type="line"/>
      <point x="261" y="333"/>
      <point x="276" y="337"/>
      <point x="283" y="337" type="curve" smooth="yes"/>
      <point x="313" y="337"/>
      <point x="327" y="321"/>
      <point x="327" y="256" type="curve" smooth="yes"/>
      <point x="327" y="209"/>
      <point x="320" y="168"/>
    </contour>
  </outline>
</glyph>
<glyph name="e" format="2">
  <advance width="552"/>
  <unicode hex="0065"/>
  <outline>
    <contour>
      <point x="272" y="-13" type="curve" smooth="yes"/>
      <point x="362" y="-13"/>
      <point x="471" y="4"/>
      <point x="528" y="16" type="curve"/>
      <point x="523" y="161" type="line"/>
      <point x="462" y="157"/>
      <point x="355" y="152"/>
      <point x="288" y="152" type="curve" smooth="yes"/>
      <point x="254" y="152"/>
      <point x="240" y="162"/>
      <point x="239" y="187" type="curve"/>
      <point x="528" y="187" type="line"/>
      <point x="538" y="286" type="line"/>
      <point x="538" y="445"/>
      <point x="450" y="518"/>
      <point x="277" y="518" type="curve" smooth="yes"/>
      <point x="91" y="518"/>
      <point x="15" y="419"/>
      <point x="15" y="243" type="curve" smooth="yes"/>
      <point x="15" y="66"/>
      <point x="82" y="-13"/>
    </contour>
    <contour>
      <point x="238" y="309" type="line"/>
      <point x="239" y="346"/>
      <point x="247" y="362"/>
      <point x="277" y="362" type="curve" smooth="yes"/>
      <point x="304" y="362"/>
      <point x="314" y="347"/>
      <point x="314" y="309" type="curve"/>
    </contour>
  </outline>
</glyph>
<glyph name="g" format="2">
  <advance width="562"/>
  <unicode hex="0067"/>
  <outline>
    <contour>
      <point x="293" y="-220" type="curve" smooth="yes"/>
      <point x="452" y="-220"/>
      <point x="550" y="-150"/>
      <point x="550" y="-22" type="curve" smooth="yes"/>
      <point x="550" y="99"/>
      <point x="502" y="138"/>
      <point x="362" y="138" type="curve" smooth="yes"/>
      <point x="257" y="138"/>
      <point x="231" y="140"/>
      <point x="231" y="148" type="curve" smooth="yes"/>
      <point x="231" y="152"/>
      <point x="233" y="157"/>
      <point x="235" y="160" type="curve"/>
      <point x="247" y="158"/>
      <point x="262" y="157"/>
      <point x="273" y="157" type="curve" smooth="yes"/>
      <point x="440" y="157"/>
      <point x="515" y="188"/>
      <point x="515" y="338" type="curve" smooth="yes"/>
      <point x="515" y="350"/>
      <point x="510" y="368"/>
      <point x="506" y="379" type="curve"/>
      <point x="553" y="379" type="line"/>
      <point x="553" y="510" type="line"/>
      <point x="368" y="507" type="line"/>
      <point x="342" y="512"/>
      <point x="296" y="518"/>
      <point x="265" y="518" type="curve" smooth="yes"/>
      <point x="89" y="518"/>
      <point x="17" y="471"/>
      <point x="17" y="338" type="curve" smooth="yes"/>
      <point x="17" y="244"/>
      <point x="60" y="205"/>
      <point x="98" y="187" type="curve"/>
      <point x="73" y="166"/>
      <point x="40" y="132"/>
      <point x="40" y="114" type="curve" smooth="yes"/>
      <point x="40" y="83"/>
      <point x="54" y="54"/>
      <point x="76" y="39" type="curve"/>
      <point x="26" y="0"/>
      <point x="12" y="-35"/>
      <point x="12" y="-81" type="curve" smooth="yes"/>
      <point x="12" y="-203"/>
      <point x="127" y="-220"/>
    </contour>
    <contour>
      <point x="274" y="-66" type="curve" smooth="yes"/>
      <point x="222" y="-66"/>
      <point x="195" y="-63"/>
      <point x="195" y="-53" type="curve" smooth="yes"/>
      <point x="195" y="-42"/>
      <point x="195" y="-36"/>
      <point x="204" y="-31" type="curve"/>
      <point x="218" y="-33"/>
      <point x="249" y="-35"/>
      <point x="281" y="-35" type="curve" smooth="yes"/>
      <point x="331" y="-35"/>
      <point x="347" y="-36"/>
      <point x="347" y="-50" type="curve" smooth="yes"/>
      <point x="347" y="-62"/>
      <point x="330" y="-66"/>
    </contour>
    <contour>
      <point x="266" y="303" type="curve" smooth="yes"/>
      <point x="239" y="303"/>
      <point x="227" y="312"/>
      <point x="227" y="339" type="curve" smooth="yes"/>
      <point x="227" y="366"/>
      <point x="239" y="375"/>
      <point x="266" y="375" type="curve" smooth="yes"/>
      <point x="293" y="375"/>
      <point x="305" y="366"/>
      <point x="305" y="339" type="curve" smooth="yes"/>
      <point x="305" y="312"/>
      <point x="293" y="303"/>
    </contour>
  </outline>
</glyph>
<glyph name="h" format="2">
  <advance width="578"/>
  <unicode hex="0068"/>
  <outline>
    <contour>
      <point x="28" y="0" type="line"/>
      <point x="252" y="0" type="line"/>
      <point x="252" y="319" type="line"/>
      <point x="262" y="322"/>
      <point x="281" y="325"/>
      <point x="293" y="325" type="curve" smooth="yes"/>
      <point x="320" y="325"/>
      <point x="331" y="299"/>
      <point x="331" y="238" type="curve" smooth="yes"/>
      <point x="331" y="0" type="line"/>
      <point x="555" y="0" type="line"/>
      <point x="555" y="261" type="line" smooth="yes"/>
      <point x="555" y="451"/>
      <point x="504" y="518"/>
      <point x="359" y="518" type="curve" smooth="yes"/>
      <point x="332" y="518"/>
      <point x="282" y="508"/>
      <point x="252" y="501" type="curve"/>
      <point x="252" y="690" type="line"/>
      <point x="28" y="690" type="line"/>
    </contour>
  </outline>
</glyph>
<glyph name="i" format="2">
  <advance width="280"/>
  <unicode hex="0069"/>
  <outline>
    <contour>
      <point x="28" y="0" type="line"/>
      <point x="252" y="0" type="line"/>
      <point x="252" y="505" type="line"/>
      <point x="28" y="505" type="line"/>
    </contour>
    <contour>
      <point x="27" y="537" type="line"/>
      <point x="253" y="537" type="line"/>
      <point x="253" y="690" type="line"/>
      <point x="27" y="690" type="line"/>
    </contour>
  </outline>
</glyph>
<glyph name="l" format="2">
  <advance width="280"/>
  <unicode hex="006C"/>
  <anchor x="140" y="0" name="bottom"/>
  <outline>
    <contour>
      <point x="28" y="0" type="line"/>
      <point x="252" y="0" type="line"/>
      <point x="252" y="690" type="line"/>
      <point x="28" y="690" type="line"/>
    </contour>
  </outline>
</glyph>
<glyph name="o" format="2">
  <advance width="564"/>
  <unicode hex="006F"/>
  <outline>
    <contour>
      <point x="282" y="-13" type="curve" smooth="yes"/>
      <point x="455" y="-13"/>
      <point x="549" y="58"/>
      <point x="549" y="253" type="curve" smooth="yes"/>
      <point x="549" y="445"/>
      <point x="455" y="518"/>
      <point x="282" y="518" type="curve" smooth="yes"/>
      <point x="109" y="518"/>
      <point x="15" y="445"/>
      <point x="15" y="253" type="curve" smooth="yes"/>
      <point x="15" y="58"/>
      <point x="109" y="-13"/>
    </contour>
    <contour>
      <point x="282" y="168" type="curve" smooth="yes"/>
      <point x="251" y="168"/>
      <point x="241" y="188"/>
      <point x="241" y="253" type="curve" smooth="yes"/>
      <point x="241" y="317"/>
      <point x="251" y="337"/>
      <point x="282" y="337" type="curve" smooth="yes"/>
      <point x="313" y="337"/>
      <point x="323" y="318"/>
      <point x="323" y="253" type="curve" smooth="yes"/>
      <point x="323" y="188"/>
      <point x="313" y="168"/>
    </contour>
  </outline>
</glyph>
<glyph name="p" format="2">
  <advance width="570"/>
  <unicode hex="0070"/>
  <outline>
    <contour>
      <point x="28" y="-195" type="line"/>
      <point x="252" y="-195" type="line"/>
      <point x="252" y="0" type="line"/>
      <point x="274" y="-6"/>
      <point x="311" y="-13"/>
      <point x="334" y="-13" type="curve" smooth="yes"/>
      <point x="497" y="-13"/>
      <point x="554" y="73"/>
      <point x="554" y="248" type="curve" smooth="yes"/>
      <point x="554" y="419"/>
      <point x="502" y="518"/>
      <point x="356" y="518" type="curve" smooth="yes"/>
      <point x="315" y="518"/>
      <point x="272" y="496"/>
      <point x="251" y="479" type="curve"/>
      <point x="249" y="505" type="line"/>
      <point x="28" y="505" type="line"/>
    </contour>
    <contour>
      <point x="284" y="168" type="curve" smooth="yes"/>
      <point x="270" y="168"/>
      <point x="258" y="170"/>
      <point x="252" y="171" type="curve"/>
      <point x="252" y="330" type="line"/>
      <point x="262" y="333"/>
      <point x="277" y="337"/>
      <point x="284" y="337" type="curve" smooth="yes"/>
      <point x="314" y="337"/>
      <point x="328" y="322"/>
      <point x="328" y="256" type="curve" smooth="yes"/>
      <point x="328" y="210"/>
      <point x="321" y="168"/>
    </contour>
  </outline>
</glyph>
<glyph name="q" format="2">
  <advance width="570"/>
  <unicode hex="0071"/>
  <outline>
    <contour>
      <point x="318" y="-194" type="line"/>
      <point x="542" y="-194" type="line"/>
      <point x="542" y="502" type="line"/>
      <point x="468" y="509"/>
      <point x="349" y="519"/>
      <point x="290" y="519" type="curve" smooth="yes"/>
      <point x="101" y="519"/>
      <point x="16" y="448"/>
      <point x="16" y="245" type="curve" smooth="yes"/>
      <point x="16" y="94"/>
      <point x="66" y="-13"/>
      <point x="214" y="-13" type="curve" smooth="yes"/>
      <point x="242" y="-13"/>
      <point x="290" y="-3"/>
      <point x="318" y="4" type="curve"/>
    </contour>
    <contour>
      <point x="286" y="169" type="curve" smooth="yes"/>
      <point x="256" y="169"/>
      <point x="242" y="185"/>
      <point x="242" y="250" type="curve" smooth="yes"/>
      <point x="242" y="297"/>
      <point x="249" y="338"/>
      <point x="286" y="338" type="curve" smooth="yes"/>
      <point x="300" y="338"/>
      <point x="312" y="336"/>
      <point x="318" y="335" type="curve"/>
      <point x="318" y="175" type="line"/>
      <point x="309" y="172"/>
      <point x="294" y="169"/>
    </contour>
  </outline>
</glyph>
<glyph name="s" format="2">
  <advance width="489"/>
  <unicode hex="0073"/>
  <anchor x="250" y="0" name="bottom"/>
  <outline>
    <contour>
      <point x="250" y="-13" type="curve" smooth="yes"/>
      <point x="396" y="-13"/>
      <point x="472" y="35"/>
      <point x="472" y="163" type="curve" smooth="yes"/>
      <point x="472" y="273"/>
      <point x="430" y="315"/>
      <point x="308" y="328" type="curve" smooth="yes"/>
      <point x="251" y="334"/>
      <point x="243" y="336"/>
      <point x="243" y="341" type="curve" smooth="yes"/>
      <point x="243" y="347"/>
      <point x="252" y="349"/>
      <point x="275" y="349" type="curve" smooth="yes"/>
      <point x="317" y="349"/>
      <point x="404" y="341"/>
      <point x="457" y="335" type="curve"/>
      <point x="465" y="492" type="line"/>
      <point x="425" y="503"/>
      <point x="336" y="518"/>
      <point x="243" y="518" type="curve" smooth="yes"/>
      <point x="113" y="518"/>
      <point x="19" y="479"/>
      <point x="19" y="334" type="curve" smooth="yes"/>
      <point x="19" y="229"/>
      <point x="63" y="187"/>
      <point x="175" y="172" type="curve" smooth="yes"/>
      <point x="235" y="164"/>
      <point x="248" y="162"/>
      <point x="248" y="157" type="curve" smooth="yes"/>
      <point x="248" y="150"/>
      <point x="238" y="148"/>
      <point x="214" y="148" type="curve" smooth="yes"/>
      <point x="168" y="148"/>
      <point x="80" y="158"/>
      <point x="27" y="165" type="curve"/>
      <point x="22" y="14" type="line"/>
      <point x="59" y="2"/>
      <point x="147" y="-13"/>
    </contour>
  </outline>
</glyph>
<glyph name="u" format="2">
  <advance width="577"/>
  <unicode hex="0075"/>
  <outline>
    <contour>
      <point x="201" y="-13" type="curve" smooth="yes"/>
      <point x="247" y="-13"/>
      <point x="279" y="-2"/>
      <point x="327" y="24" type="curve"/>
      <point x="327" y="0" type="line"/>
      <point x="549" y="0" type="line"/>
      <point x="549" y="505" type="line"/>
      <point x="325" y="505" type="line"/>
      <point x="325" y="186" type="line"/>
      <point x="316" y="183"/>
      <point x="296" y="180"/>
      <point x="284" y="180" type="curve" smooth="yes"/>
      <point x="257" y="180"/>
      <point x="247" y="196"/>
      <point x="247" y="259" type="curve" smooth="yes"/>
      <point x="247" y="505" type="line"/>
      <point x="23" y="505" type="line"/>
      <point x="23" y="244" type="line" smooth="yes"/>
      <point x="23" y="80"/>
      <point x="68" y="-13"/>
    </contour>
  </outline>
</glyph>
<glyph name="bar" format="2">
  <advance width="286"/>
  <unicode hex="007C"/>
  <outline>
    <contour>
      <point x="34" y="-220" type="line"/>
      <point x="252" y="-220" type="line"/>
      <point x="252" y="703" type="line"/>
      <point x="34" y="703" type="line"/>
    </contour>
  </outline>
</glyph>
<glyph name="currency" format="2">
  <advance width="550"/>
  <unicode hex="00A4"/>
  <outline>
    <contour>
      <point x="114" y="101" type="curve" smooth="yes"/>
      <point x="200" y="13"/>
      <point x="343" y="13"/>
      <point x="430" y="101" type="curve" smooth="yes"/>
      <point x="518" y="187"/>
      <point x="518" y="330"/>
      <point x="430" y="417" type="curve" smooth="yes"/>
      <point x="343" y="505"/>
      <point x="200" y="505"/>
      <point x="114" y="417" type="curve" smooth="yes"/>
      <point x="26" y="330"/>
      <point x="26" y="187"/>
    </contour>
    <contour>
      <point x="82" y="23" type="line"/>
      <point x="176" y="118" type="line"/>
      <point x="134" y="160" type="line"/>
      <point x="39" y="66" type="line"/>
    </contour>
    <contour>
      <point x="207" y="194" type="curve" smooth="yes"/>
      <point x="172" y="228"/>
      <point x="172" y="289"/>
      <point x="207" y="323" type="curve"/>
      <point x="241" y="359"/>
      <point x="302" y="359"/>
      <point x="336" y="323" type="curve"/>
      <point x="372" y="289"/>
      <point x="372" y="228"/>
      <point x="336" y="194" type="curve"/>
      <point x="302" y="159"/>
      <point x="241" y="159"/>
    </contour>
    <contour>
      <point x="134" y="358" type="line"/>
      <point x="176" y="400" type="line"/>
      <point x="82" y="495" type="line"/>
      <point x="39" y="452" type="line"/>
    </contour>
    <contour>
      <point x="468" y="23" type="line"/>
      <point x="511" y="66" type="line"/>
      <point x="416" y="160" type="line"/>
      <point x="374" y="118" type="line"/>
    </contour>
    <contour>
      <point x="416" y="358" type="line"/>
      <point x="511" y="452" type="line"/>
      <point x="468" y="495" type="line"/>
      <point x="374" y="400" type="line"/>
    </contour>
  </outline>
</glyph>
<glyph name="copyright" format="2">
  <advance width="643"/>
  <unicode hex="00A9"/>
  <outline>
    <contour>
      <point x="320" y="150" type="curve" smooth="yes"/>
      <point x="490" y="150"/>
      <point x="597" y="273"/>
      <point x="597" y="434" type="curve" smooth="yes"/>
      <point x="597" y="588"/>
      <point x="490" y="718"/>
      <point x="322" y="718" type="curve" smooth="yes"/>
      <point x="162" y="718"/>
      <point x="46" y="598"/>
      <point x="46" y="434" type="curve" smooth="yes"/>
      <point x="46" y="274"/>
      <point x="163" y="150"/>
    </contour>
    <contour>
      <point x="330" y="269" type="curve" smooth="yes"/>
      <point x="371" y="269"/>
      <point x="402" y="279"/>
      <point x="414" y="287" type="curve"/>
      <point x="407" y="369" type="line"/>
      <point x="392" y="367"/>
      <point x="363" y="364"/>
      <point x="340" y="364" type="curve" smooth="yes"/>
      <point x="315" y="364"/>
      <point x="305" y="386"/>
      <point x="305" y="439" type="curve" smooth="yes"/>
      <point x="305" y="488"/>
      <point x="314" y="503"/>
      <point x="340" y="503" type="curve" smooth="yes"/>
      <point x="363" y="503"/>
      <point x="392" y="500"/>
      <point x="407" y="497" type="curve"/>
      <point x="414" y="583" type="line"/>
      <point x="400" y="589"/>
      <point x="369" y="598"/>
      <point x="334" y="598" type="curve" smooth="yes"/>
      <point x="242" y="598"/>
      <point x="202" y="561"/>
      <point x="202" y="439" type="curve" smooth="yes"/>
      <point x="202" y="303"/>
      <point x="242" y="269"/>
    </contour>
    <contour>
      <point x="320" y="210" type="curve" smooth="yes"/>
      <point x="198" y="210"/>
      <point x="108" y="312"/>
      <point x="108" y="434" type="curve" smooth="yes"/>
      <point x="108" y="556"/>
      <point x="199" y="658"/>
      <point x="321" y="658" type="curve" smooth="yes"/>
      <point x="443" y="658"/>
      <point x="535" y="556"/>
      <point x="535" y="434" type="curve" smooth="yes"/>
      <point x="535" y="311"/>
      <point x="445" y="210"/>
    </contour>
  </outline>
</glyph>
<glyph name="ordfeminine" format="2">
  <advance width="351"/>
  <unicode hex="00AA"/>
  <outline>
    <contour>
      <point x="334" y="384" type="curve"/>
      <point x="336" y="466" type="line"/>
      <point x="329" y="467"/>
      <point x="323" y="470"/>
      <point x="318" y="474" type="curve"/>
      <point x="318" y="551" type="line" smooth="yes"/>
      <point x="318" y="638"/>
      <point x="268" y="666"/>
      <point x="172" y="666" type="curve" smooth="yes"/>
      <point x="118" y="666"/>
      <point x="72" y="657"/>
      <point x="25" y="640" type="curve"/>
      <point x="31" y="565" type="line"/>
      <point x="73" y="568"/>
      <point x="120" y="571"/>
      <point x="144" y="572" type="curve" smooth="yes"/>
      <point x="173" y="573"/>
      <point x="188" y="567"/>
      <point x="188" y="557" type="curve" smooth="yes"/>
      <point x="188" y="440" type="line" smooth="yes"/>
      <point x="188" y="390"/>
      <point x="255" y="384"/>
    </contour>
    <contour>
      <point x="102" y="379" type="curve" smooth="yes"/>
      <point x="140" y="379"/>
      <point x="173" y="395"/>
      <point x="201" y="423" type="curve"/>
      <point x="210" y="474" type="line"/>
      <point x="196" y="466"/>
      <point x="177" y="461"/>
      <point x="164" y="461" type="curve" smooth="yes"/>
      <point x="152" y="461"/>
      <point x="147" y="465"/>
      <point x="147" y="474" type="curve" smooth="yes"/>
      <point x="147" y="483"/>
      <point x="153" y="489"/>
      <point x="165" y="490" type="curve"/>
      <point x="214" y="492" type="line"/>
      <point x="214" y="558" type="line"/>
      <point x="121" y="554" type="line" smooth="yes"/>
      <point x="50" y="551"/>
      <point x="16" y="524"/>
      <point x="16" y="470" type="curve" smooth="yes"/>
      <point x="16" y="415"/>
      <point x="47" y="379"/>
    </contour>
  </outline>
</glyph>
<glyph name="guillemotleft" format="2">
  <advance width="624"/>
  <unicode hex="00AB"/>
  <outline>
    <contour>
      <point x="284" y="240" type="line"/>
      <point x="443" y="10" type="line"/>
      <point x="605" y="84" type="line"/>
      <point x="491" y="253" type="line"/>
      <point x="605" y="422" type="line"/>
      <point x="445" y="496" type="line"/>
      <point x="284" y="261" type="line"/>
    </contour>
    <contour>
      <point x="14" y="240" type="line"/>
      <point x="173" y="10" type="line"/>
      <point x="335" y="84" type="line"/>
      <point x="221" y="253" type="line"/>
      <point x="335" y="422" type="line"/>
      <point x="175" y="496" type="line"/>
      <point x="14" y="261" type="line"/>
    </contour>
  </outline>
</glyph>
<glyph name="degree" format="2">
  <advance width="550"/>
  <unicode hex="00B0"/>
  <outline>
    <contour>
      <point x="275" y="391" type="curve" smooth="yes"/>
      <point x="364" y="391"/>
      <point x="425" y="451"/>
      <point x="425" y="540" type="curve" smooth="yes"/>
      <point x="425" y="629"/>
      <point x="364" y="690"/>
      <point x="275" y="690" type="curve" smooth="yes"/>
      <point x="186" y="690"/>
      <point x="125" y="629"/>
      <point x="125" y="540" type="curve" smooth="yes"/>
      <point x="125" y="451"/>
      <point x="186" y="391"/>
    </contour>
    <contour>
      <point x="275" y="504" type="curve" smooth="yes"/>
      <point x="254" y="504"/>
      <point x="240" y="519"/>
      <point x="240" y="540" type="curve" smooth="yes"/>
      <point x="240" y="562"/>
      <point x="254" y="577"/>
      <point x="275" y="577" type="curve" smooth="yes"/>
      <point x="297" y="577"/>
      <point x="312" y="562"/>
      <point x="312" y="540" type="curve" smooth="yes"/>
      <point x="312" y="519"/>
      <point x="297" y="504"/>
    </contour>
  </outline>
</glyph>
<glyph name="cedilla" format="2">
  <advance width="833"/>
  <unicode hex="00B8"/>
  <outline>
    <contour>
      <point x="487" y="-231" type="curve" smooth="yes"/>
      <point x="571" y="-231"/>
      <point x="614" y="-199"/>
      <point x="614" y="-123" type="curve" smooth="yes"/>
      <point x="614" y="-48"/>
      <point x="576" y="-34"/>
      <point x="476" y="-33" type="curve"/>
      <point x="476" y="11" type="line"/>
      <point x="403" y="11" type="line"/>
      <point x="403" y="-101" type="line"/>
      <point x="412" y="-101" type="line" smooth="yes"/>
      <point x="441" y="-101"/>
      <point x="450" y="-104"/>
      <point x="450" y="-121" type="curve" smooth="yes"/>
      <point x="450" y="-136"/>
      <point x="442" y="-143"/>
      <point x="412" y="-143" type="curve" smooth="yes"/>
      <point x="396" y="-143"/>
      <point x="366" y="-142"/>
      <point x="364" y="-142" type="curve"/>
      <point x="360" y="-220" type="line"/>
      <point x="386" y="-225"/>
      <point x="438" y="-231"/>
    </contour>
  </outline>
</glyph>
<glyph name="onesuperior" format="2">
  <advance width="350"/>
  <unicode hex="00B9"/>
  <outline>
    <contour>
      <point x="140" y="273" type="line"/>
      <point x="297" y="273" type="line"/>
      <point x="297" y="670" type="line"/>
      <point x="162" y="670" type="line"/>
      <point x="21" y="588" type="line"/>
      <point x="57" y="460" type="line"/>
      <point x="140" y="494" type="line"/>
    </contour>
  </outline>
</glyph>
<glyph name="AE" format="2">
  <advance width="882"/>
  <unicode hex="00C6"/>
  <outline>
    <contour>
      <point x="-5" y="0" type="line"/>
      <point x="223" y="0" type="line"/>
      <point x="239" y="77" type="line"/>
      <point x="366" y="77" type="line"/>
      <point x="366" y="0" type="line"/>
      <point x="865" y="0" type="line"/>
      <point x="865" y="185" type="line"/>
      <point x="592" y="185" type="line"/>
      <point x="592" y="248" type="line"/>
      <point x="805" y="248" type="line"/>
      <point x="805" y="425" type="line"/>
      <point x="592" y="425" type="line"/>
      <point x="592" y="485" type="line"/>
      <point x="865" y="485" type="line"/>
      <point x="865" y="670" type="line"/>
      <point x="143" y="670" type="line"/>
    </contour>
    <contour>
      <point x="270" y="256" type="line"/>
      <point x="307" y="485" type="line"/>
      <point x="366" y="485" type="line"/>
      <point x="366" y="256" type="line"/>
    </contour>
  </outline>
</glyph>
<glyph name="Eth" format="2">
  <advance width="661"/>
  <unicode hex="00D0"/>
  <outline>
    <contour>
      <point x="-1" y="270" type="line"/>
      <point x="324" y="270" type="line"/>
      <point x="324" y="407" type="line"/>
      <point x="-1" y="407" type="line"/>
    </contour>
    <component base="D" xOffset="7"/>
  </outline>
</glyph>
<glyph name="Thorn" format="2">
  <advance width="611"/>
  <unicode hex="00DE"/>
  <outline>
    <contour>
      <point x="30" y="0" type="line"/>
      <point x="256" y="0" type="line"/>
      <point x="256" y="72" type="line"/>
      <point x="290" y="72" type="line" smooth="yes"/>
      <point x="488" y="72"/>
      <point x="591" y="129"/>
      <point x="591" y="339" type="curve" smooth="yes"/>
      <point x="591" y="549"/>
      <point x="487" y="600"/>
      <point x="290" y="600" type="curve" smooth="yes"/>
      <point x="256" y="600" type="line"/>
      <point x="256" y="670" type="line"/>
      <point x="30" y="670" type="line"/>
    </contour>
    <contour>
      <point x="256" y="255" type="line"/>
      <point x="256" y="417" type="line"/>
      <point x="280" y="417" type="line" smooth="yes"/>
      <point x="341" y="417"/>
      <point x="363" y="402"/>
      <point x="363" y="338" type="curve" smooth="yes"/>
      <point x="363" y="277"/>
      <point x="340" y="255"/>
      <point x="280" y="255" type="curve" smooth="yes"/>
    </contour>
  </outline>
</glyph>
<glyph name="germandbls" format="2">
  <advance width="697"/>
  <unicode hex="00DF"/>
  <outline>
    <contour>
      <point x="500" y="-13" type="curve" smooth="yes"/>
      <point x="645" y="-13"/>
      <point x="692" y="43"/>
      <point x="692" y="175" type="curve" smooth="yes"/>
      <point x="692" y="268"/>
      <point x="668" y="298"/>
      <point x="573" y="332" type="curve" smooth="yes"/>
      <point x="507" y="355"/>
      <point x="494" y="362"/>
      <point x="494" y="382" type="curve" smooth="yes"/>
      <point x="494" y="395"/>
      <point x="503" y="402"/>
      <point x="553" y="429" type="curve" smooth="yes"/>
      <point x="606" y="458"/>
      <point x="615" y="472"/>
      <point x="615" y="538" type="curve" smooth="yes"/>
      <point x="615" y="650"/>
      <point x="543" y="703"/>
      <point x="340" y="703" type="curve" smooth="yes"/>
      <point x="110" y="703"/>
      <point x="28" y="647"/>
      <point x="28" y="453" type="curve" smooth="yes"/>
      <point x="28" y="0" type="line"/>
      <point x="252" y="0" type="line"/>
      <point x="252" y="460" type="line" smooth="yes"/>
      <point x="252" y="502"/>
      <point x="283" y="515"/>
      <point x="339" y="515" type="curve" smooth="yes"/>
      <point x="379" y="515"/>
      <point x="389" y="501"/>
      <point x="389" y="484" type="curve" smooth="yes"/>
      <point x="389" y="472"/>
      <point x="386" y="463"/>
      <point x="345" y="430" type="curve" smooth="yes"/>
      <point x="304" y="397"/>
      <point x="288" y="374"/>
      <point x="288" y="324" type="curve" smooth="yes"/>
      <point x="288" y="275"/>
      <point x="307" y="243"/>
      <point x="380" y="215" type="curve" smooth="yes"/>
      <point x="461" y="184"/>
      <point x="476" y="177"/>
      <point x="476" y="167" type="curve" smooth="yes"/>
      <point x="476" y="154"/>
      <point x="461" y="148"/>
      <point x="438" y="148" type="curve" smooth="yes"/>
      <point x="393" y="148"/>
      <point x="333" y="154"/>
      <point x="299" y="158" type="curve"/>
      <point x="292" y="11" type="line"/>
      <point x="332" y="1"/>
      <point x="415" y="-13"/>
    </contour>
  </outline>
</glyph>
<glyph name="oslash" format="2">
  <advance width="564"/>
  <unicode hex="00F8"/>
  <outline>
    <contour>
      <point x="566" y="546" type="line"/>
      <point x="349" y="589" type="line"/>
      <point x="271" y="454" type="line"/>
      <point x="482" y="398" type="line"/>
    </contour>
    <contour>
      <point x="212" y="-74" type="line"/>
      <point x="259" y="8" type="line"/>
      <point x="63" y="89" type="line"/>
      <point x="-5" y="-30" type="line"/>
    </contour>
    <component base="o"/>
  </outline>
</glyph>
<glyph name="hbar" format="2">
  <advance width="578"/>
  <unicode hex="0127"/>
  <outline>
    <contour>
      <point x="-12" y="545" type="line"/>
      <point x="313" y="545" type="line"/>
      <point x="313" y="652" type="line"/>
      <point x="-12" y="652" type="line"/>
    </contour>
    <component base="h"/>
  </outline>
</glyph>
<glyph name="lslash" format="2">
  <advance width="308"/>
  <unicode hex="0142"/>
  <outline>
    <contour>
      <point x="4" y="131" type="line"/>
      <point x="304" y="281" type="line"/>
      <point x="304" y="468" type="line"/>
      <point x="4" y="318" type="line"/>
    </contour>
    <component base="l" xOffset="13"/>
  </outline>
</glyph>
<glyph name="OE" format="2">
  <advance width="886"/>
  <unicode hex="0152"/>
  <outline>
    <contour>
      <point x="291" y="-13" type="curve" smooth="yes"/>
      <point x="349" y="-13"/>
      <point x="435" y="-6"/>
      <point x="484" y="0" type="curve"/>
      <point x="869" y="0" type="line"/>
      <point x="869" y="185" type="line"/>
      <point x="630" y="185" type="line"/>
      <point x="630" y="246" type="line"/>
      <point x="809" y="246" type="line"/>
      <point x="809" y="427" type="line"/>
      <point x="630" y="427" type="line"/>
      <point x="630" y="485" type="line"/>
      <point x="869" y="485" type="line"/>
      <point x="869" y="670" type="line"/>
      <point x="484" y="670" type="line"/>
      <point x="425" y="676"/>
      <point x="334" y="683"/>
      <point x="301" y="683" type="curve" smooth="yes"/>
      <point x="83" y="683"/>
      <point x="18" y="591"/>
      <point x="18" y="340" type="curve" smooth="yes"/>
      <point x="18" y="94"/>
      <point x="77" y="-13"/>
    </contour>
    <contour>
      <point x="357" y="175" type="curve" smooth="yes"/>
      <point x="249" y="175"/>
      <point x="246" y="224"/>
      <point x="246" y="340" type="curve" smooth="yes"/>
      <point x="246" y="462"/>
      <point x="260" y="495"/>
      <point x="357" y="495" type="curve" smooth="yes"/>
      <point x="362" y="495"/>
      <point x="396" y="494"/>
      <point x="398" y="494" type="curve"/>
      <point x="398" y="176" type="line"/>
      <point x="385" y="175"/>
      <point x="371" y="175"/>
    </contour>
  </outline>
</glyph>
<glyph name="Tbar" format="2">
  <advance width="519"/>
  <unicode hex="0166"/>
  <outline>
    <contour>
      <point x="100" y="190" type="line"/>
      <point x="426" y="190" type="line"/>
      <point x="426" y="327" type="line"/>
      <point x="100" y="327" type="line"/>
    </contour>
    <component base="T"/>
  </outline>
</glyph>
<glyph name="dotlessj" format="2">
  <advance width="280"/>
  <unicode hex="0237"/>
  <outline>
    <contour>
      <point x="11" y="-220" type="line"/>
      <point x="209" y="-158"/>
      <point x="252" y="-128"/>
      <point x="252" y="73" type="curve" smooth="yes"/>
      <point x="252" y="505" type="line"/>
      <point x="28" y="505" type="line"/>
      <point x="28" y="66" type="line" smooth="yes"/>
      <point x="28" y="-6"/>
      <point x="20" y="-12"/>
      <point x="-61" y="-50" type="curve"/>
    </contour>
  </outline>
</glyph>
<glyph name="breve" format="2">
  <advance width="406"/>
  <unicode hex="02D8"/>
  <outline>
    <contour>
      <point x="204" y="548" type="curve" smooth="yes"/>
      <point x="334" y="548"/>
      <point x="364" y="628"/>
      <point x="364" y="708" type="curve"/>
      <point x="248" y="718" type="line"/>
      <point x="245" y="692"/>
      <point x="234" y="673"/>
      <point x="204" y="673" type="curve" smooth="yes"/>
      <point x="174" y="673"/>
      <point x="163" y="692"/>
      <point x="160" y="718" type="curve"/>
      <point x="44" y="708" type="line"/>
      <point x="44" y="628"/>
      <point x="74" y="548"/>
    </contour>
  </outline>
</glyph>
<glyph name="tilde" format="2">
  <advance width="481"/>
  <unicode hex="02DC"/>
  <outline>
    <contour>
      <point x="295" y="547" type="curve" smooth="yes"/>
      <point x="334" y="547"/>
      <point x="379" y="583"/>
      <point x="402" y="610" type="curve"/>
      <point x="373" y="727" type="line"/>
      <point x="349" y="710"/>
      <point x="310" y="688"/>
      <point x="291" y="688" type="curve" smooth="yes"/>
      <point x="280" y="688"/>
      <point x="263" y="695"/>
      <point x="244" y="703" type="curve"/>
      <point x="216" y="716"/>
      <point x="180" y="731"/>
      <point x="144" y="731" type="curve" smooth="yes"/>
      <point x="105" y="731"/>
      <point x="60" y="695"/>
      <point x="37" y="667" type="curve"/>
      <point x="66" y="551" type="line"/>
      <point x="88" y="568"/>
      <point x="126" y="591"/>
      <point x="146" y="591" type="curve" smooth="yes"/>
      <point x="161" y="591"/>
      <point x="181" y="582"/>
      <point x="204" y="573" type="curve" smooth="yes"/>
      <point x="233" y="561"/>
      <point x="266" y="547"/>
    </contour>
  </outline>
</glyph>
<glyph name="commaaccentcomb" format="2">
  <unicode hex="0326"/>
  <anchor x="111" y="0" name="_bottom"/>
  <outline>
    <contour>
      <point x="-4" y="-260" type="line"/>
      <point x="152" y="-260" type="line"/>
      <point x="218" y="-45" type="line"/>
      <point x="14" y="-45" type="line"/>
    </contour>
  </outline>
</glyph>
<glyph name="pi" format="2">
  <advance width="550"/>
  <unicode hex="03C0"/>
  <outline>
    <contour>
      <point x="513" y="0" type="curve"/>
      <point x="513" y="164" type="line"/>
      <point x="436" y="164"/>
      <point x="424" y="161"/>
      <point x="424" y="264" type="curve" smooth="yes"/>
      <point x="424" y="477" type="line"/>
      <point x="269" y="477" type="line"/>
      <point x="269" y="154" type="line"/>
      <point x="275" y="30"/>
      <point x="342" y="0"/>
    </contour>
    <contour>
      <point x="61" y="0" type="line"/>
      <point x="236" y="0" type="line"/>
      <point x="266" y="476" type="line"/>
      <point x="91" y="476" type="line"/>
    </contour>
    <contour>
      <point x="18" y="282" type="line"/>
      <point x="36" y="288"/>
      <point x="89" y="295"/>
      <point x="169" y="295" type="curve" smooth="yes"/>
      <point x="197" y="295" type="line"/>
      <point x="356" y="295" type="line"/>
      <point x="384" y="295" type="line" smooth="yes"/>
      <point x="456" y="295"/>
      <point x="509" y="304"/>
      <point x="528" y="311" type="curve"/>
      <point x="528" y="516" type="line"/>
      <point x="492" y="504"/>
      <point x="425" y="500"/>
      <point x="384" y="500" type="curve" smooth="yes"/>
      <point x="168" y="500" type="line" smooth="yes"/>
      <point x="128" y="499"/>
      <point x="60" y="495"/>
      <point x="18" y="487" type="curve"/>
    </contour>
  </outline>
</glyph>
<glyph name="hamza-ar" format="2">
  <advance width="633"/>
  <unicode hex="0621"/>
  <anchor x="327" y="-100" name="bottom"/>
  <anchor x="327" y="575" name="top"/>
  <outline>
    <contour>
      <point x="176" y="37" type="curve"/>
      <point x="344" y="161" type="line"/>
      <point x="322" y="185"/>
      <point x="313" y="207"/>
      <point x="313" y="234" type="curve" smooth="yes"/>
      <point x="313" y="282"/>
      <point x="348" y="317"/>
      <point x="395" y="317" type="curve" smooth="yes"/>
      <point x="413" y="317"/>
      <point x="428" y="313"/>
      <point x="443" y="303" type="curve"/>
      <point x="565" y="461" type="line"/>
      <point x="524" y="487"/>
      <point x="454" y="505"/>
      <point x="395" y="505" type="curve" smooth="yes"/>
      <point x="226" y="505"/>
      <point x="89" y="387"/>
      <point x="89" y="234" type="curve" smooth="yes"/>
      <point x="89" y="159"/>
      <point x="115" y="105"/>
    </contour>
    <contour>
      <point x="40" y="0" type="line"/>
      <point x="613" y="0" type="line"/>
      <point x="613" y="188" type="line"/>
      <point x="40" y="188" type="line"/>
    </contour>
  </outline>
</glyph>
<glyph name="dal-ar" format="2">
  <advance width="517"/>
  <unicode hex="062F"/>
  <anchor x="241" y="-100" name="bottom"/>
  <anchor x="175" y="573" name="top"/>
  <outline>
    <contour>
      <point x="40" y="0" type="line"/>
      <point x="477" y="0" type="line"/>
      <point x="477" y="162" type="line" smooth="yes"/>
      <point x="477" y="389"/>
      <point x="359" y="505"/>
      <point x="133" y="505" type="curve" smooth="yes"/>
      <point x="92" y="505" type="line"/>
      <point x="92" y="317" type="line"/>
      <point x="133" y="317" type="line" smooth="yes"/>
      <point x="227" y="317"/>
      <point x="253" y="291"/>
      <point x="253" y="162" type="curve" smooth="yes"/>
      <point x="253" y="75" type="line"/>
      <point x="387" y="188" type="line"/>
      <point x="40" y="188" type="line"/>
    </contour>
  </outline>
</glyph>
<glyph name="tah-ar" format="2">
  <advance width="880"/>
  <unicode hex="0637"/>
  <anchor x="471" y="-100" name="bottom"/>
  <anchor x="521" y="573" name="top"/>
  <outline>
    <contour>
      <point x="20" y="0" type="line"/>
      <point x="820" y="0" type="line"/>
      <point x="820" y="208" type="line" smooth="yes"/>
      <point x="820" y="394"/>
      <point x="712" y="505"/>
      <point x="552" y="505" type="curve" smooth="yes"/>
      <point x="384" y="505"/>
      <point x="329" y="409"/>
      <point x="178" y="208" type="curve"/>
      <point x="216" y="71" type="line"/>
      <point x="249" y="111"/>
      <point x="377" y="317"/>
      <point x="516" y="317" type="curve" smooth="yes"/>
      <point x="557" y="317"/>
      <point x="596" y="299"/>
      <point x="596" y="208" type="curve" smooth="yes"/>
      <point x="596" y="38" type="line"/>
      <point x="775" y="188" type="line"/>
      <point x="20" y="188" type="line"/>
    </contour>
    <contour>
      <point x="93" y="188" type="line"/>
      <point x="317" y="188" type="line"/>
      <point x="317" y="690" type="line"/>
      <point x="93" y="690" type="line"/>
    </contour>
  </outline>
</glyph>
<glyph name="lam-ar" format="2">
  <advance width="753"/>
  <unicode hex="0644"/>
  <anchor x="374" y="-330" name="bottom"/>
  <anchor x="581" y="780" name="top"/>
  <outline>
    <contour>
      <point x="373" y="-248" type="curve" smooth="yes"/>
      <point x="574" y="-248"/>
      <point x="693" y="-131"/>
      <point x="693" y="18" type="curve" smooth="yes"/>
      <point x="693" y="690" type="line"/>
      <point x="469" y="690" type="line"/>
      <point x="469" y="18" type="line" smooth="yes"/>
      <point x="469" y="-39"/>
      <point x="449" y="-60"/>
      <point x="373" y="-60" type="curve" smooth="yes"/>
      <point x="296" y="-60"/>
      <point x="264" y="-30"/>
      <point x="264" y="25" type="curve" smooth="yes"/>
      <point x="264" y="60"/>
      <point x="274" y="147"/>
      <point x="294" y="278" type="curve"/>
      <point x="73" y="306" type="line"/>
      <point x="56" y="195"/>
      <point x="40" y="78"/>
      <point x="40" y="25" type="curve" smooth="yes"/>
      <point x="40" y="-130"/>
      <point x="179" y="-248"/>
    </contour>
  </outline>
</glyph>
<glyph name="heh-ar" format="2">
  <advance width="696"/>
  <unicode hex="0647"/>
  <anchor x="348" y="-100" name="bottom"/>
  <anchor x="348" y="573" name="top"/>
  <outline>
    <contour>
      <point x="40" y="0" type="line"/>
      <point x="656" y="0" type="line"/>
      <point x="656" y="207" type="line" smooth="yes"/>
      <point x="656" y="411"/>
      <point x="548" y="505"/>
      <point x="348" y="505" type="curve" smooth="yes"/>
      <point x="148" y="505"/>
      <point x="40" y="411"/>
      <point x="40" y="207" type="curve" smooth="yes"/>
    </contour>
    <contour>
      <point x="264" y="87" type="line"/>
      <point x="264" y="197" type="line" smooth="yes"/>
      <point x="264" y="278"/>
      <point x="269" y="317"/>
      <point x="348" y="317" type="curve" smooth="yes"/>
      <point x="427" y="317"/>
      <point x="432" y="278"/>
      <point x="432" y="197" type="curve" smooth="yes"/>
      <point x="432" y="87" type="line"/>
      <point x="533" y="188" type="line"/>
      <point x="163" y="188" type="line"/>
    </contour>
  </outline>
</glyph>
<glyph name="hamzaabove-ar" format="2">
  <unicode hex="0654"/>
  <anchor x="178" y="434" name="_top"/>
  <anchor x="178" y="790" name="top"/>
  <outline>
    <contour>
      <point x="96" y="454" type="curve"/>
      <point x="187" y="522" type="line"/>
      <point x="175" y="535"/>
      <point x="170" y="547"/>
      <point x="170" y="562" type="curve" smooth="yes"/>
      <point x="170" y="588"/>
      <point x="188" y="607"/>
      <point x="215" y="607" type="curve" smooth="yes"/>
      <point x="225" y="607"/>
      <point x="233" y="605"/>
      <point x="241" y="600" type="curve"/>
      <point x="308" y="685" type="line"/>
      <point x="285" y="701"/>
      <point x="247" y="710"/>
      <point x="215" y="710" type="curve" smooth="yes"/>
      <point x="123" y="710"/>
      <point x="47" y="645"/>
      <point x="47" y="562" type="curve" smooth="yes"/>
      <point x="47" y="520"/>
      <point x="62" y="491"/>
    </contour>
    <contour>
      <point x="20" y="434" type="line"/>
      <point x="335" y="434" type="line"/>
      <point x="335" y="537" type="line"/>
      <point x="20" y="537" type="line"/>
    </contour>
  </outline>
</glyph>
<glyph name="zero-ar" format="2">
  <advance width="384"/>
  <unicode hex="0660"/>
  <outline>
    <contour>
      <point x="80" y="151" type="line"/>
      <point x="304" y="151" type="line"/>
      <point x="304" y="339" type="line"/>
      <point x="80" y="339" type="line"/>
    </contour>
  </outline>
</glyph>
<glyph name="three-ar" format="2">
  <advance width="871"/>
  <unicode hex="0663"/>
  <outline>
    <contour>
      <point x="584" y="258" type="curve" smooth="yes"/>
      <point x="741" y="258"/>
      <point x="841" y="354"/>
      <point x="841" y="510" type="curve" smooth="yes"/>
      <point x="841" y="660" type="line"/>
      <point x="617" y="660" type="line"/>
      <point x="617" y="510" type="line" smooth="yes"/>
      <point x="617" y="454"/>
      <point x="608" y="446"/>
      <point x="584" y="446" type="curve" smooth="yes"/>
      <point x="560" y="446"/>
      <point x="549" y="451"/>
      <point x="532" y="469" type="curve"/>
      <point x="368" y="341" type="line"/>
      <point x="415" y="290"/>
      <point x="501" y="258"/>
    </contour>
    <contour>
      <point x="93" y="0" type="line"/>
      <point x="317" y="0" type="line"/>
      <point x="317" y="660" type="line"/>
      <point x="93" y="660" type="line"/>
    </contour>
    <contour>
      <point x="322" y="258" type="curve" smooth="yes"/>
      <point x="479" y="258"/>
      <point x="579" y="354"/>
      <point x="579" y="510" type="curve" smooth="yes"/>
      <point x="579" y="660" type="line"/>
      <point x="355" y="660" type="line"/>
      <point x="355" y="510" type="line" smooth="yes"/>
      <point x="355" y="454"/>
      <point x="346" y="446"/>
      <point x="322" y="446" type="curve" smooth="yes"/>
      <point x="298" y="446"/>
      <point x="287" y="451"/>
      <point x="270" y="469" type="curve"/>
      <point x="106" y="341" type="line"/>
      <point x="153" y="290"/>
      <point x="239" y="258"/>
    </contour>
  </outline>
</glyph>
<glyph name="six-ar" format="2">
  <advance width="591"/>
  <unicode hex="0666"/>
  <outline>
    <contour>
      <point x="267" y="0" type="line"/>
      <point x="491" y="0" type="line"/>
      <point x="491" y="660" type="line"/>
      <point x="30" y="660" type="line"/>
      <point x="30" y="472" type="line"/>
      <point x="491" y="472" type="line"/>
      <point x="267" y="660" type="line"/>
    </contour>
  </outline>
</glyph>
<glyph name="nine-ar" format="2">
  <advance width="629"/>
  <unicode hex="0669"/>
  <outline>
    <contour>
      <point x="325" y="0" type="line"/>
      <point x="549" y="0" type="line"/>
      <point x="549" y="660" type="line"/>
      <point x="306" y="660" type="line" smooth="yes"/>
      <point x="138" y="660"/>
      <point x="20" y="565"/>
      <point x="20" y="423" type="curve" smooth="yes"/>
      <point x="20" y="283"/>
      <point x="130" y="188"/>
      <point x="286" y="188" type="curve" smooth="yes"/>
      <point x="317" y="188"/>
      <point x="362" y="194"/>
      <point x="396" y="201" type="curve"/>
      <point x="346" y="385" type="line"/>
      <point x="321" y="379"/>
      <point x="301" y="376"/>
      <point x="286" y="376" type="curve" smooth="yes"/>
      <point x="253" y="376"/>
      <point x="244" y="383"/>
      <point x="244" y="423" type="curve" smooth="yes"/>
      <point x="244" y="460"/>
      <point x="255" y="472"/>
      <point x="306" y="472" type="curve" smooth="yes"/>
      <point x="437" y="472" type="line"/>
      <point x="325" y="566" type="line"/>
    </contour>
  </outline>
</glyph>
<glyph name="thousandseparator-ar" format="2">
  <advance width="223"/>
  <unicode hex="066C"/>
  <outline>
    <contour>
      <point x="13" y="-107" type="line"/>
      <point x="152" y="-107" type="line"/>
      <point x="211" y="115" type="line"/>
      <point x="29" y="115" type="line"/>
    </contour>
  </outline>
</glyph>
<glyph name="four-persian" format="2">
  <advance width="844"/>
  <unicode hex="06F4"/>
  <outline>
    <contour>
      <point x="464" y="240" type="curve" smooth="yes"/>
      <point x="685" y="240"/>
      <point x="814" y="341"/>
      <point x="814" y="500" type="curve" smooth="yes"/>
      <point x="814" y="601" type="line"/>
      <point x="590" y="601" type="line"/>
      <point x="590" y="500" type="line" smooth="yes"/>
      <point x="590" y="447"/>
      <point x="572" y="428"/>
      <point x="464" y="428" type="curve" smooth="yes"/>
      <point x="373" y="428"/>
      <point x="324" y="448"/>
      <point x="324" y="500" type="curve" smooth="yes"/>
      <point x="324" y="660" type="line"/>
      <point x="100" y="660" type="line"/>
      <point x="100" y="500" type="line" smooth="yes"/>
      <point x="100" y="342"/>
      <point x="262" y="240"/>
    </contour>
    <contour>
      <point x="100" y="0" type="line"/>
      <point x="324" y="0" type="line"/>
      <point x="324" y="660" type="line"/>
      <point x="100" y="660" type="line"/>
    </contour>
    <contour>
      <point x="504" y="351" type="curve"/>
      <point x="510" y="428" type="line"/>
      <point x="476" y="428"/>
      <point x="461" y="443"/>
      <point x="461" y="472" type="curve" smooth="yes"/>
      <point x="461" y="501"/>
      <point x="477" y="516"/>
      <point x="510" y="516" type="curve" smooth="yes"/>
      <point x="517" y="516"/>
      <point x="526" y="515"/>
      <point x="534" y="513" type="curve"/>
      <point x="554" y="610" type="line"/>
      <point x="537" y="614"/>
      <point x="520" y="616"/>
      <point x="503" y="616" type="curve" smooth="yes"/>
      <point x="417" y="616"/>
      <point x="356" y="566"/>
      <point x="356" y="483" type="curve" smooth="yes"/>
      <point x="356" y="401"/>
      <point x="416" y="351"/>
    </contour>
  </outline>
</glyph>
<glyph name="six-persian" format="2">
  <advance width="507"/>
  <unicode hex="06F6"/>
  <outline>
    <contour>
      <point x="330" y="235" type="curve"/>
      <point x="330" y="423" type="line"/>
      <point x="303" y="423"/>
      <point x="284" y="430"/>
      <point x="284" y="452" type="curve" smooth="yes"/>
      <point x="284" y="474"/>
      <point x="303" y="481"/>
      <point x="324" y="481" type="curve" smooth="yes"/>
      <point x="341" y="481"/>
      <point x="381" y="476"/>
      <point x="408" y="470" type="curve"/>
      <point x="457" y="654" type="line"/>
      <point x="422" y="661"/>
      <point x="355" y="669"/>
      <point x="324" y="669" type="curve" smooth="yes"/>
      <point x="178" y="669"/>
      <point x="60" y="577"/>
      <point x="60" y="452" type="curve" smooth="yes"/>
      <point x="60" y="326"/>
      <point x="178" y="235"/>
    </contour>
    <contour>
      <point x="60" y="0" type="curve"/>
      <point x="284" y="0" type="line"/>
      <point x="284" y="153"/>
      <point x="336" y="234"/>
      <point x="392" y="235" type="curve"/>
      <point x="390" y="423" type="line"/>
      <point x="197" y="421"/>
      <point x="60" y="263"/>
    </contour>
    <contour>
      <point x="330" y="235" type="line"/>
      <point x="408" y="235" type="line"/>
      <point x="408" y="423" type="line"/>
      <point x="330" y="423" type="line"/>
    </contour>
  </outline>
</glyph>
<glyph name="quoteleft" format="2">
  <advance width="278"/>
  <unicode hex="2018"/>
  <outline>
    <contour>
      <point x="259" y="670" type="line"/>
      <point x="83" y="670" type="line"/>
      <point x="8" y="389" type="line"/>
      <point x="238" y="389" type="line"/>
    </contour>
  </outline>
</glyph>
<glyph name="bullet" format="2">
  <advance width="377"/>
  <unicode hex="2022"/>
  <outline>
    <contour>
      <point x="51" y="140" type="line"/>
      <point x="326" y="140" type="line"/>
      <point x="326" y="410" type="line"/>
      <point x="51" y="410" type="line"/>
    </contour>
  </outline>
</glyph>
<glyph name="guilsinglleft" format="2">
  <advance width="354"/>
  <unicode hex="2039"/>
  <outline>
    <contour>
      <point x="173" y="14" type="line"/>
      <point x="335" y="88" type="line"/>
      <point x="221" y="257" type="line"/>
      <point x="335" y="426" type="line"/>
      <point x="175" y="500" type="line"/>
      <point x="14" y="265" type="line"/>
      <point x="14" y="244" type="line"/>
    </contour>
  </outline>
</glyph>
<glyph name="guilsinglright" format="2">
  <advance width="354"/>
  <unicode hex="203A"/>
  <outline>
    <contour>
      <point x="179" y="6" type="line"/>
      <point x="340" y="241" type="line"/>
      <point x="340" y="262" type="line"/>
      <point x="181" y="492" type="line"/>
      <point x="19" y="418" type="line"/>
      <point x="133" y="249" type="line"/>
      <point x="19" y="80" type="line"/>
    </contour>
  </outline>
</glyph>
<glyph name="foursuperior" format="2">
  <advance width="350"/>
  <unicode hex="2074"/>
  <outline>
    <contour>
      <point x="176" y="273" type="line"/>
      <point x="323" y="273" type="line"/>
      <point x="323" y="321" type="line"/>
      <point x="338" y="321" type="line"/>
      <point x="338" y="434" type="line"/>
      <point x="323" y="434" type="line"/>
      <point x="323" y="507" type="line"/>
      <point x="176" y="489" type="line"/>
      <point x="176" y="434" type="line"/>
      <point x="147" y="434" type="line"/>
      <point x="225" y="670" type="line"/>
      <point x="67" y="670" type="line"/>
      <point x="13" y="419" type="line"/>
      <point x="13" y="321" type="line"/>
      <point x="176" y="321" type="line"/>
    </contour>
  </outline>
</glyph>
<glyph name="fivesuperior" format="2">
  <advance width="350"/>
  <unicode hex="2075"/>
  <outline>
    <contour>
      <point x="177" y="273" type="curve" smooth="yes"/>
      <point x="270" y="273"/>
      <point x="331" y="304"/>
      <point x="331" y="409" type="curve" smooth="yes"/>
      <point x="331" y="512"/>
      <point x="291" y="535"/>
      <point x="199" y="535" type="curve" smooth="yes"/>
      <point x="179" y="535"/>
      <point x="153" y="530"/>
      <point x="139" y="526" type="curve"/>
      <point x="142" y="552" type="line"/>
      <point x="317" y="552" type="line"/>
      <point x="317" y="670" type="line"/>
      <point x="39" y="670" type="line"/>
      <point x="31" y="417" type="line"/>
      <point x="118" y="406" type="line"/>
      <point x="129" y="409"/>
      <point x="150" y="413"/>
      <point x="165" y="413" type="curve" smooth="yes"/>
      <point x="184" y="413"/>
      <point x="191" y="409"/>
      <point x="191" y="397" type="curve" smooth="yes"/>
      <point x="191" y="386"/>
      <point x="181" y="381"/>
      <point x="164" y="381" type="curve" smooth="yes"/>
      <point x="125" y="381"/>
      <point x="65" y="388"/>
      <point x="31" y="393" type="curve"/>
      <point x="20" y="296" type="line"/>
      <point x="61" y="286"/>
      <point x="132" y="273"/>
    </contour>
  </outline>
</glyph>
<glyph name="summation" format="2">
  <advance width="568"/>
  <unicode hex="2211"/>
  <outline>
    <contour>
      <point x="18" y="-180" type="line"/>
      <point x="558" y="-180" type="line"/>
      <point x="558" y="20" type="line"/>
      <point x="176" y="20" type="line"/>
      <point x="212" y="-57" type="line"/>
      <point x="463" y="239" type="line"/>
      <point x="463" y="346" type="line"/>
      <point x="213" y="636" type="line"/>
      <point x="178" y="560" type="line"/>
      <point x="558" y="560" type="line"/>
      <point x="558" y="760" type="line"/>
      <point x="18" y="760" type="line"/>
      <point x="18" y="586" type="line"/>
      <point x="253" y="290" type="line"/>
      <point x="18" y="-10" type="line"/>
    </contour>
  </outline>
</glyph>
<glyph name="divisionslash" format="2">
  <advance width="550"/>
  <unicode hex="2215"/>
  <outline>
    <contour>
      <point x="232" y="-74" type="line"/>
      <point x="535" y="676" type="line"/>
      <point x="318" y="720" type="line"/>
      <point x="15" y="-30" type="line"/>
    </contour>
  </outline>
</glyph>
<glyph name="radical" format="2">
  <advance width="690"/>
  <unicode hex="221A"/>
  <outline>
    <contour>
      <point x="221" y="-129" type="line"/>
      <point x="464" y="-129" type="line"/>
      <point x="690" y="791" type="line"/>
      <point x="458" y="791" type="line"/>
      <point x="325" y="29" type="line"/>
      <point x="361" y="29" type="line"/>
      <point x="279" y="449" type="line"/>
      <point x="44" y="449" type="line"/>
    </contour>
    <contour>
      <point x="0" y="265" type="line"/>
      <point x="276" y="265" type="line"/>
      <point x="276" y="449" type="line"/>
      <point x="0" y="449" type="line"/>
    </contour>
  </outline>
</glyph>
<glyph name="notequal" format="2">
  <advance width="550"/>
  <unicode hex="2260"/>
  <outline>
    <contour>
      <point x="68" y="-23" type="line"/>
      <point x="202" y="-23" type="line"/>
      <point x="481" y="528" type="line"/>
      <point x="350" y="528" type="line"/>
    </contour>
    <component base="equal"/>
  </outline>
</glyph>
<glyph name="lessequal" format="2">
  <advance width="550"/>
  <unicode hex="2264"/>
  <outline>
    <contour>
      <point x="483" y="130" type="line"/>
      <point x="483" y="316" type="line"/>
      <point x="221" y="350" type="line"/>
      <point x="483" y="376" type="line"/>
      <point x="483" y="557" type="line"/>
      <point x="59" y="435" type="line"/>
      <point x="59" y="257" type="line"/>
    </contour>
    <contour>
      <point x="88" y="-70" type="line"/>
      <point x="464" y="-70" type="line"/>
      <point x="464" y="90" type="line"/>
      <point x="88" y="90" type="line"/>
    </contour>
  </outline>
</glyph>
<glyph name="greaterequal" format="2">
  <advance width="550"/>
  <unicode hex="2265"/>
  <outline>
    <contour>
      <point x="77" y="130" type="line"/>
      <point x="501" y="257" type="line"/>
      <point x="501" y="435" type="line"/>
      <point x="77" y="557" type="line"/>
      <point x="77" y="376" type="line"/>
      <point x="339" y="350" type="line"/>
      <point x="77" y="316" type="line"/>
    </contour>
    <contour>
      <point x="472" y="-70" type="line"/>
      <point x="472" y="90" type="line"/>
      <point x="96" y="90" type="line"/>
      <point x="96" y="-70" type="line"/>
    </contour>
  </outline>
</glyph>
<glyph name="gaf-ar.medi" format="2">
  <advance width="761"/>
  <unicode hex="FB95"/>
  <anchor x="258" y="-100" name="bottom"/>
  <anchor x="83" y="868" name="top"/>
  <outline>
    <contour>
      <point x="0" y="532" type="line"/>
      <point x="49" y="627"/>
      <point x="77" y="676"/>
      <point x="130" y="760" type="curve"/>
      <point x="34" y="817" type="line"/>
      <point x="6" y="776"/>
      <point x="-30" y="710"/>
      <point x="-69" y="631" type="curve"/>
    </contour>
    <component base="keheh-ar.medi"/>
  </outline>
</glyph>
<glyph name="hehgoal-ar.init" format="2">
  <advance width="435"/>
  <unicode hex="FBA8"/>
  <outline>
    <contour>
      <point x="111" y="-355" type="line"/>
      <point x="353" y="-355" type="line"/>
      <point x="375" y="-59" type="line"/>
      <point x="190" y="-59" type="line"/>
    </contour>
    <component base="behDotless-ar.init"/>
  </outline>
</glyph>
<glyph name="hehDoachashmee-ar.fina" format="2">
  <advance width="888"/>
  <unicode hex="FBAB"/>
  <outline>
    <contour>
      <point x="787" y="0" type="line"/>
      <point x="888" y="0" type="line"/>
      <point x="888" y="188" type="line"/>
      <point x="787" y="188" type="line"/>
    </contour>
    <component base="hehDoachashmee-ar"/>
    <component base="connection_r" xOffset="838"/>
  </outline>
</glyph>
<glyph name="twodotshorizontalabove-ar" format="2">
  <advance width="495"/>
  <unicode hex="FBB4"/>
  <outline>
    <contour>
      <point x="16" y="517" type="line"/>
      <point x="227" y="517" type="line"/>
      <point x="227" y="670" type="line"/>
      <point x="16" y="670" type="line"/>
    </contour>
    <contour>
      <point x="270" y="517" type="line"/>
      <point x="481" y="517" type="line"/>
      <point x="481" y="670" type="line"/>
      <point x="270" y="670" type="line"/>
    </contour>
  </outline>
</glyph>
<glyph name="seen_alefMaksura-ar" format="2">
  <advance width="1987"/>
  <unicode hex="FCFB"/>
  <anchor x="1488" y="-100" name="bottom_1"/>
  <anchor x="514" y="-300" name="bottom_2"/>
  <anchor x="993.5" y="0" name="caret_1"/>
  <anchor x="1488" y="573" name="top_1"/>
  <anchor x="169" y="264" name="top_2"/>
  <outline>
    <contour>
      <point x="393" y="-248" type="curve" smooth="yes"/>
      <point x="676" y="-248" type="line" smooth="yes"/>
      <point x="858" y="-248"/>
      <point x="987" y="-140"/>
      <point x="987" y="14" type="curve" smooth="yes"/>
      <point x="987" y="135"/>
      <point x="907" y="205"/>
      <point x="728" y="265" type="curve" smooth="yes"/>
      <point x="694" y="277"/>
      <point x="619" y="293"/>
      <point x="619" y="306" type="curve" smooth="yes"/>
      <point x="619" y="311"/>
      <point x="623" y="317"/>
      <point x="669" y="317" type="curve"/>
      <point x="675" y="505" type="line"/>
      <point x="510" y="505"/>
      <point x="395" y="435"/>
      <point x="395" y="294" type="curve" smooth="yes"/>
      <point x="395" y="194"/>
      <point x="452" y="153"/>
      <point x="658" y="86" type="curve" smooth="yes"/>
      <point x="745" y="58"/>
      <point x="763" y="52"/>
      <point x="763" y="11" type="curve" smooth="yes"/>
      <point x="763" y="-35"/>
      <point x="741" y="-60"/>
      <point x="676" y="-60" type="curve" smooth="yes"/>
      <point x="393" y="-60" type="line" smooth="yes"/>
      <point x="311" y="-60"/>
      <point x="264" y="-22"/>
      <point x="264" y="31" type="curve" smooth="yes"/>
      <point x="264" y="52"/>
      <point x="271" y="105"/>
      <point x="283" y="181" type="curve"/>
      <point x="62" y="210" type="line"/>
      <point x="48" y="122"/>
      <point x="40" y="62"/>
      <point x="40" y="27" type="curve" smooth="yes"/>
      <point x="40" y="-124"/>
      <point x="193" y="-248"/>
    </contour>
    <contour>
      <point x="669" y="317" type="line"/>
      <point x="1047" y="317" type="line"/>
      <point x="1047" y="505" type="line"/>
      <point x="675" y="505" type="line"/>
    </contour>
    <contour>
      <point x="1047" y="0" type="line"/>
      <point x="1271" y="0" type="line"/>
      <point x="1271" y="505" type="line"/>
      <point x="1047" y="505" type="line"/>
    </contour>
    <contour>
      <point x="1271" y="0" type="line"/>
      <point x="1302" y="0" type="line" smooth="yes"/>
      <point x="1501" y="0"/>
      <point x="1599" y="109"/>
      <point x="1599" y="325" type="curve" smooth="yes"/>
      <point x="1599" y="450" type="line"/>
      <point x="1375" y="450" type="line"/>
      <point x="1375" y="325" type="line" smooth="yes"/>
      <point x="1375" y="202"/>
      <point x="1359" y="188"/>
      <point x="1302" y="188" type="curve" smooth="yes"/>
      <point x="1271" y="188" type="line"/>
    </contour>
    <contour>
      <point x="1634" y="0" type="curve" smooth="yes"/>
      <point x="1927" y="0" type="line"/>
      <point x="1927" y="270" type="line" smooth="yes"/>
      <point x="1927" y="314"/>
      <point x="1910" y="430"/>
      <point x="1897" y="505" type="curve"/>
      <point x="1676" y="474" type="line"/>
      <point x="1691" y="386"/>
      <point x="1703" y="296"/>
      <point x="1703" y="270" type="curve" smooth="yes"/>
      <point x="1703" y="75" type="line"/>
      <point x="1837" y="188" type="line"/>
      <point x="1634" y="188" type="line" smooth="yes"/>
      <point x="1610" y="188"/>
      <point x="1585" y="197"/>
      <point x="1567" y="213" type="curve"/>
      <point x="1435" y="76" type="line"/>
      <point x="1489" y="28"/>
      <point x="1563" y="0"/>
    </contour>
  </outline>
</glyph>
<glyph name="sad_reh-ar" format="2">
  <advance width="1278"/>
  <unicode hex="FD0F"/>
  <anchor x="869" y="-100" name="bottom_1"/>
  <anchor x="126" y="-350" name="bottom_2"/>
  <anchor x="433" y="0" name="caret_1"/>
  <anchor x="869" y="573" name="top_1"/>
  <anchor x="178" y="573" name="top_2"/>
  <outline>
    <contour>
      <point x="715" y="0" type="line"/>
      <point x="1218" y="0" type="line"/>
      <point x="1218" y="208" type="line" smooth="yes"/>
      <point x="1218" y="394"/>
      <point x="1110" y="505"/>
      <point x="950" y="505" type="curve" smooth="yes"/>
      <point x="782" y="505"/>
      <point x="770" y="455"/>
      <point x="576" y="208" type="curve"/>
      <point x="614" y="71" type="line"/>
      <point x="647" y="111"/>
      <point x="775" y="317"/>
      <point x="914" y="317" type="curve" smooth="yes"/>
      <point x="955" y="317"/>
      <point x="994" y="299"/>
      <point x="994" y="208" type="curve" smooth="yes"/>
      <point x="994" y="38" type="line"/>
      <point x="1173" y="188" type="line"/>
      <point x="715" y="188" type="line"/>
    </contour>
    <contour>
      <point x="289" y="216" type="line"/>
      <point x="491" y="216" type="line"/>
      <point x="491" y="404" type="line"/>
      <point x="289" y="404" type="line"/>
    </contour>
    <contour>
      <point x="491" y="0" type="line"/>
      <point x="715" y="0" type="line"/>
      <point x="715" y="505" type="line"/>
      <point x="491" y="505" type="line"/>
    </contour>
    <component base="reh-ar"/>
  </outline>
</glyph>
<glyph name="seen_reh-ar.fina" format="2">
  <advance width="1472"/>
  <unicode hex="FD2A"/>
  <outline>
    <contour>
      <point x="1371" y="0" type="line"/>
      <point x="1472" y="0" type="line"/>
      <point x="1472" y="188" type="line"/>
      <point x="1371" y="188" type="line"/>
    </contour>
    <component base="connection_r" xOffset="1422"/>
    <component base="seen_reh-ar"/>
  </outline>
</glyph>
<glyph name="allah-ar" format="2">
  <advance width="1841"/>
  <unicode hex="FDF2"/>
  <anchor x="1294" y="-100" name="bottom_1"/>
  <anchor x="869" y="-100" name="bottom_2"/>
  <anchor x="331" y="-100" name="bottom_3"/>
  <anchor x="460.25" y="0" name="caret_1"/>
  <anchor x="920.5" y="0" name="caret_2"/>
  <anchor x="1380.75" y="0" name="caret_3"/>
  <anchor x="1294" y="828" name="top_1"/>
  <anchor x="869" y="1242" name="top_2"/>
  <anchor x="331" y="567" name="top_3"/>
  <outline>
    <contour>
      <point x="757" y="0" type="line"/>
      <point x="981" y="0" type="line"/>
      <point x="981" y="690" type="line"/>
      <point x="757" y="690" type="line"/>
    </contour>
    <contour>
      <point x="676" y="0" type="line"/>
      <point x="757" y="0" type="line"/>
      <point x="757" y="188" type="line"/>
      <point x="676" y="188" type="line"/>
    </contour>
    <contour>
      <point x="981" y="0" type="line"/>
      <point x="1062" y="0" type="line"/>
      <point x="1062" y="188" type="line"/>
      <point x="981" y="188" type="line"/>
    </contour>
    <component base="alef-ar" xOffset="1457"/>
    <component base="heh-ar.fina"/>
    <component base="shaddaAlefabove-ar" xOffset="631" yOffset="355"/>
    <component base="lam-ar.init" xOffset="1052"/>
  </outline>
</glyph>
<glyph name="jeem-ar.fina" format="2">
  <advance width="702"/>
  <unicode hex="FE9E"/>
  <outline>
    <contour>
      <point x="430" y="-171" type="line"/>
      <point x="564" y="-171" type="line"/>
      <point x="564" y="-60" type="line"/>
      <point x="430" y="-60" type="line"/>
    </contour>
    <component base="hah-ar.fina.alt"/>
  </outline>
</glyph>
<glyph name="hah-ar.init" format="2">
  <advance width="616"/>
  <unicode hex="FEA3"/>
  <anchor x="224" y="-60" name="bottom"/>
  <anchor x="224" y="570" name="top"/>
  <outline>
    <contour>
      <point x="86" y="309" type="line"/>
      <point x="134" y="315"/>
      <point x="166" y="317"/>
      <point x="190" y="317" type="curve" smooth="yes"/>
      <point x="293" y="317"/>
      <point x="332" y="277"/>
      <point x="332" y="209" type="curve" smooth="yes"/>
      <point x="332" y="127" type="line"/>
      <point x="411" y="188" type="line"/>
      <point x="0" y="188" type="line"/>
      <point x="0" y="0" type="line"/>
      <point x="556" y="0" type="line"/>
      <point x="556" y="209" type="line" smooth="yes"/>
      <point x="556" y="390"/>
      <point x="407" y="505"/>
      <point x="224" y="505" type="curve" smooth="yes"/>
      <point x="174" y="505"/>
      <point x="125" y="497"/>
      <point x="67" y="482" type="curve"/>
    </contour>
    <component base="connection_l"/>
  </outline>
</glyph>
<glyph name="reh-ar.fina" format="2">
  <advance width="390"/>
  <unicode hex="FEAE"/>
  <outline>
    <contour>
      <point x="289" y="0" type="line"/>
      <point x="390" y="0" type="line"/>
      <point x="390" y="188" type="line"/>
      <point x="289" y="188" type="line"/>
    </contour>
    <component base="reh-ar"/>
    <component base="connection_r" xOffset="340"/>
  </outline>
</glyph>
<glyph name="seen-ar.init" format="2">
  <advance width="1041"/>
  <unicode hex="FEB3"/>
  <anchor x="542" y="-100" name="bottom"/>
  <anchor x="542" y="573" name="top"/>
  <outline>
    <contour>
      <point x="688" y="0" type="curve" smooth="yes"/>
      <point x="981" y="0" type="line"/>
      <point x="981" y="270" type="line" smooth="yes"/>
      <point x="981" y="314"/>
      <point x="964" y="430"/>
      <point x="951" y="505" type="curve"/>
      <point x="730" y="474" type="line"/>
      <point x="745" y="386"/>
      <point x="757" y="296"/>
      <point x="757" y="270" type="curve" smooth="yes"/>
      <point x="757" y="75" type="line"/>
      <point x="891" y="188" type="line"/>
      <point x="688" y="188" type="line" smooth="yes"/>
      <point x="664" y="188"/>
      <point x="639" y="197"/>
      <point x="621" y="213" type="curve"/>
      <point x="489" y="76" type="line"/>
      <point x="543" y="28"/>
      <point x="617" y="0"/>
    </contour>
    <contour>
      <point x="0" y="0" type="line"/>
      <point x="325" y="0" type="line"/>
      <point x="325" y="450" type="line"/>
      <point x="101" y="450" type="line"/>
      <point x="101" y="140" type="line"/>
      <point x="145" y="188" type="line"/>
      <point x="0" y="188" type="line"/>
    </contour>
    <contour>
      <point x="325" y="0" type="line"/>
      <point x="356" y="0" type="line" smooth="yes"/>
      <point x="555" y="0"/>
      <point x="653" y="109"/>
      <point x="653" y="325" type="curve" smooth="yes"/>
      <point x="653" y="450" type="line"/>
      <point x="429" y="450" type="line"/>
      <point x="429" y="325" type="line" smooth="yes"/>
      <point x="429" y="202"/>
      <point x="413" y="188"/>
      <point x="356" y="188" type="curve" smooth="yes"/>
      <point x="325" y="188" type="line"/>
    </contour>
    <component base="connection_l"/>
  </outline>
</glyph>
<glyph name="sad-ar.fina" format="2">
  <advance width="1297"/>
  <unicode hex="FEBA"/>
  <outline>
    <contour>
      <point x="1196" y="0" type="line"/>
      <point x="1297" y="0" type="line"/>
      <point x="1297" y="188" type="line"/>
      <point x="1196" y="188" type="line"/>
    </contour>
    <component base="sad-ar"/>
    <component base="connection_r" xOffset="1247"/>
  </outline>
</glyph>
<glyph name="sad-ar.init" format="2">
  <advance width="840"/>
  <unicode hex="FEBB"/>
  <anchor x="431" y="-100" name="bottom"/>
  <anchor x="431" y="573" name="top"/>
  <outline>
    <contour>
      <point x="0" y="0" type="line"/>
      <point x="780" y="0" type="line"/>
      <point x="780" y="208" type="line" smooth="yes"/>
      <point x="780" y="394"/>
      <point x="672" y="505"/>
      <point x="512" y="505" type="curve" smooth="yes"/>
      <point x="344" y="505"/>
      <point x="342" y="455"/>
      <point x="138" y="208" type="curve"/>
      <point x="176" y="71" type="line"/>
      <point x="209" y="111"/>
      <point x="337" y="317"/>
      <point x="476" y="317" type="curve" smooth="yes"/>
      <point x="517" y="317"/>
      <point x="556" y="299"/>
      <point x="556" y="208" type="curve" smooth="yes"/>
      <point x="556" y="38" type="line"/>
      <point x="735" y="188" type="line"/>
      <point x="0" y="188" type="line"/>
    </contour>
    <contour>
      <point x="53" y="188" type="line"/>
      <point x="277" y="188" type="line"/>
      <point x="277" y="505" type="line"/>
      <point x="53" y="505" type="line"/>
    </contour>
    <component base="connection_l"/>
  </outline>
</glyph>
<glyph name="tah-ar.init" format="2">
  <advance width="888"/>
  <unicode hex="FEC3"/>
  <anchor x="479" y="-100" name="bottom"/>
  <anchor x="529" y="573" name="top"/>
  <outline>
    <contour>
      <point x="0" y="0" type="line"/>
      <point x="828" y="0" type="line"/>
      <point x="828" y="208" type="line" smooth="yes"/>
      <point x="828" y="394"/>
      <point x="720" y="505"/>
      <point x="560" y="505" type="curve" smooth="yes"/>
      <point x="392" y="505"/>
      <point x="390" y="455"/>
      <point x="186" y="208" type="curve"/>
      <point x="224" y="71" type="line"/>
      <point x="257" y="111"/>
      <point x="385" y="317"/>
      <point x="524" y="317" type="curve" smooth="yes"/>
      <point x="565" y="317"/>
      <point x="604" y="299"/>
      <point x="604" y="208" type="curve" smooth="yes"/>
      <point x="604" y="38" type="line"/>
      <point x="783" y="188" type="line"/>
      <point x="0" y="188" type="line"/>
    </contour>
    <contour>
      <point x="101" y="188" type="line"/>
      <point x="325" y="188" type="line"/>
      <point x="325" y="690" type="line"/>
      <point x="101" y="690" type="line"/>
    </contour>
    <component base="connection_l"/>
  </outline>
</glyph>
<glyph name="tah-ar.medi" format="2">
  <advance width="929"/>
  <unicode hex="FEC4"/>
  <outline>
    <contour>
      <point x="828" y="0" type="line"/>
      <point x="929" y="0" type="line"/>
      <point x="929" y="188" type="line"/>
      <point x="828" y="188" type="line"/>
    </contour>
    <component base="tah-ar.init"/>
    <component base="connection_r" xOffset="879"/>
  </outline>
</glyph>
<glyph name="kaf-ar.init" format="2">
  <advance width="720"/>
  <unicode hex="FEDB"/>
  <anchor x="273" y="-100" name="bottom"/>
  <anchor x="272" y="821" name="top"/>
  <outline>
    <contour>
      <point x="0" y="0" type="line"/>
      <point x="660" y="0" type="line"/>
      <point x="660" y="203" type="line" smooth="yes"/>
      <point x="660" y="391"/>
      <point x="555" y="505"/>
      <point x="380" y="505" type="curve" smooth="yes"/>
      <point x="252" y="505" type="line"/>
      <point x="272" y="477" type="line"/>
      <point x="294" y="518" type="line" smooth="yes"/>
      <point x="310" y="548"/>
      <point x="324" y="574"/>
      <point x="364" y="635" type="curve"/>
      <point x="176" y="737" type="line"/>
      <point x="123" y="656"/>
      <point x="106" y="625"/>
      <point x="97" y="609" type="curve" smooth="yes"/>
      <point x="34" y="492" type="line"/>
      <point x="158" y="317" type="line"/>
      <point x="380" y="317" type="line" smooth="yes"/>
      <point x="418" y="317"/>
      <point x="436" y="298"/>
      <point x="436" y="203" type="curve" smooth="yes"/>
      <point x="436" y="135" type="line"/>
      <point x="504" y="188" type="line"/>
      <point x="0" y="188" type="line"/>
    </contour>
    <component base="connection_l"/>
  </outline>
</glyph>
<glyph name="kaf-ar.medi" format="2">
  <advance width="761"/>
  <unicode hex="FEDC"/>
  <outline>
    <contour>
      <point x="660" y="0" type="line"/>
      <point x="761" y="0" type="line"/>
      <point x="761" y="188" type="line"/>
      <point x="660" y="188" type="line"/>
    </contour>
    <component base="kaf-ar.init"/>
    <component base="connection_r" xOffset="711"/>
  </outline>
</glyph>
<glyph name="lam-ar.medi" format="2">
  <advance width="426"/>
  <unicode hex="FEE0"/>
  <outline>
    <contour>
      <point x="325" y="0" type="line"/>
      <point x="426" y="0" type="line"/>
      <point x="426" y="188" type="line"/>
      <point x="325" y="188" type="line"/>
    </contour>
    <component base="lam-ar.init"/>
    <component base="connection_r" xOffset="376"/>
  </outline>
</glyph>
<glyph name="meem-ar.fina" format="2">
  <advance width="768"/>
  <unicode hex="FEE2"/>
  <outline>
    <contour>
      <point x="667" y="0" type="line"/>
      <point x="768" y="0" type="line"/>
      <point x="768" y="188" type="line"/>
      <point x="667" y="188" type="line"/>
    </contour>
    <component base="meem-ar"/>
    <component base="connection_r" xOffset="718"/>
  </outline>
</glyph>
<glyph name="heh-ar.init" format="2">
  <advance width="818"/>
  <unicode hex="FEEB"/>
  <anchor x="402" y="-100" name="bottom"/>
  <anchor x="402" y="700" name="top"/>
  <outline>
    <contour>
      <point x="0" y="0" type="line"/>
      <point x="758" y="0" type="line"/>
      <point x="758" y="232" type="line" smooth="yes"/>
      <point x="758" y="517"/>
      <point x="578" y="603"/>
      <point x="400" y="603" type="curve" smooth="yes"/>
      <point x="308" y="603"/>
      <point x="201" y="580"/>
      <point x="96" y="555" type="curve"/>
      <point x="123" y="388" type="line"/>
      <point x="199" y="400"/>
      <point x="312" y="414"/>
      <point x="386" y="414" type="curve" smooth="yes"/>
      <point x="503" y="414"/>
      <point x="534" y="378"/>
      <point x="534" y="232" type="curve" smooth="yes"/>
      <point x="534" y="60" type="line"/>
      <point x="698" y="188" type="line"/>
      <point x="0" y="188" type="line"/>
    </contour>
    <contour>
      <point x="77" y="188" type="line"/>
      <point x="230" y="188" type="line"/>
      <point x="230" y="189" type="line" smooth="yes"/>
      <point x="230" y="221"/>
      <point x="250" y="243"/>
      <point x="271" y="243" type="curve" smooth="yes"/>
      <point x="291" y="243"/>
      <point x="310" y="221"/>
      <point x="310" y="190" type="curve" smooth="yes"/>
      <point x="310" y="188" type="line"/>
      <point x="463" y="188" type="line"/>
      <point x="463" y="190" type="line" smooth="yes"/>
      <point x="463" y="290"/>
      <point x="376" y="371"/>
      <point x="271" y="371" type="curve" smooth="yes"/>
      <point x="164" y="371"/>
      <point x="77" y="289"/>
      <point x="77" y="189" type="curve" smooth="yes"/>
    </contour>
    <component base="connection_l"/>
  </outline>
</glyph>
<glyph name="heh-ar.medi" format="2">
  <advance width="729"/>
  <unicode hex="FEEC"/>
  <anchor x="335" y="-380" name="bottom"/>
  <anchor x="335" y="573" name="top"/>
  <outline>
    <contour>
      <point x="0" y="0" type="line"/>
      <point x="628" y="0" type="line"/>
      <point x="628" y="248" type="line" smooth="yes"/>
      <point x="628" y="437"/>
      <point x="530" y="505"/>
      <point x="335" y="505" type="curve" smooth="yes"/>
      <point x="243" y="505"/>
      <point x="163" y="490"/>
      <point x="128" y="478" type="curve"/>
      <point x="115" y="433"/>
      <point x="97" y="338"/>
      <point x="97" y="241" type="curve" smooth="yes"/>
      <point x="97" y="149"/>
      <point x="112" y="65"/>
      <point x="123" y="32" type="curve"/>
      <point x="336" y="91" type="line"/>
      <point x="331" y="106"/>
      <point x="321" y="194"/>
      <point x="321" y="241" type="curve" smooth="yes"/>
      <point x="321" y="299"/>
      <point x="331" y="385"/>
      <point x="343" y="426" type="curve"/>
      <point x="201" y="300" type="line"/>
      <point x="230" y="310"/>
      <point x="282" y="317"/>
      <point x="335" y="317" type="curve" smooth="yes"/>
      <point x="392" y="317"/>
      <point x="404" y="305"/>
      <point x="404" y="251" type="curve" smooth="yes"/>
      <point x="404" y="119" type="line"/>
      <point x="470" y="188" type="line"/>
      <point x="0" y="188" type="line"/>
    </contour>
    <contour>
      <point x="335" y="-293" type="curve" smooth="yes"/>
      <point x="530" y="-293"/>
      <point x="628" y="-229"/>
      <point x="628" y="-48" type="curve" smooth="yes"/>
      <point x="628" y="188" type="line"/>
      <point x="404" y="188" type="line"/>
      <point x="404" y="-36" type="line" smooth="yes"/>
      <point x="404" y="-93"/>
      <point x="392" y="-105"/>
      <point x="335" y="-105" type="curve" smooth="yes"/>
      <point x="282" y="-105"/>
      <point x="230" y="-98"/>
      <point x="201" y="-88" type="curve"/>
      <point x="342" y="-214" type="line"/>
      <point x="331" y="-176"/>
      <point x="321" y="-97"/>
      <point x="321" y="-41" type="curve" smooth="yes"/>
      <point x="321" y="0"/>
      <point x="330" y="84"/>
      <point x="334" y="95" type="curve"/>
      <point x="123" y="158" type="line"/>
      <point x="112" y="127"/>
      <point x="97" y="46"/>
      <point x="97" y="-41" type="curve" smooth="yes"/>
      <point x="97" y="-136"/>
      <point x="115" y="-225"/>
      <point x="128" y="-268" type="curve"/>
      <point x="163" y="-279"/>
      <point x="243" y="-293"/>
    </contour>
    <contour>
      <point x="628" y="0" type="line"/>
      <point x="729" y="0" type="line"/>
      <point x="729" y="188" type="line"/>
      <point x="628" y="188" type="line"/>
    </contour>
    <component base="connection_r" xOffset="679"/>
    <component base="connection_l"/>
  </outline>
</glyph>
<glyph name="waw-ar.fina" format="2">
  <advance width="686"/>
  <unicode hex="FEEE"/>
  <outline>
    <contour>
      <point x="585" y="0" type="line"/>
      <point x="686" y="0" type="line"/>
      <point x="686" y="188" type="line"/>
      <point x="585" y="188" type="line"/>
    </contour>
    <component base="waw-ar"/>
    <component base="connection_r" xOffset="636"/>
  </outline>
</glyph>
<glyph name="Oslash.rvrn" format="2">
  <advance width="670"/>
  <outline>
    <contour>
      <point x="108" y="-98" type="line"/>
      <point x="162" y="-120" type="line"/>
      <point x="581" y="772" type="line"/>
      <point x="528" y="793" type="line"/>
    </contour>
    <component base="O"/>
  </outline>
</glyph>
<glyph name=".notdef" format="2">
  <advance width="235"/>
  <outline>
    <contour>
      <point x="21" y="709" type="line"/>
      <point x="21" y="0" type="line"/>
      <point x="207" y="0" type="line"/>
      <point x="207" y="709" type="line"/>
    </contour>
    <contour>
      <point x="41" y="689" type="line"/>
      <point x="187" y="689" type="line"/>
      <point x="187" y="20" type="line"/>
      <point x="41" y="20" type="line"/>
    </contour>
  </outline>
</glyph>
<glyph name="alef-ar.fina.short" format="2">
  <advance width="405"/>
  <outline>
    <contour>
      <point x="304" y="0" type="line"/>
      <point x="405" y="0" type="line"/>
      <point x="405" y="188" type="line"/>
      <point x="304" y="188" type="line"/>
    </contour>
    <component base="connection_r" xOffset="355"/>
    <component base="alef-ar.short"/>
  </outline>
</glyph>
<glyph name="alef-ar.short" format="2">
  <advance width="384"/>
  <anchor x="192" y="-70" name="bottom"/>
  <anchor x="192" y="618" name="top"/>
  <outline>
    <contour>
      <point x="80" y="0" type="line"/>
      <point x="304" y="0" type="line"/>
      <point x="304" y="583" type="line"/>
      <point x="80" y="583" type="line"/>
    </contour>
  </outline>
</glyph>
<glyph name="alefMaksura_alefMaksura-ar.fina.alt" format="2">
  <advance width="1492"/>
  <anchor x="1239" y="-60" name="bottom_1"/>
  <anchor x="514" y="-300" name="bottom_2"/>
  <anchor x="746" y="0" name="caret_1"/>
  <anchor x="1111" y="573" name="top_1"/>
  <anchor x="169" y="264" name="top_2"/>
  <outline>
    <contour>
      <point x="393" y="-248" type="curve" smooth="yes"/>
      <point x="676" y="-248" type="line" smooth="yes"/>
      <point x="858" y="-248"/>
      <point x="987" y="-140"/>
      <point x="987" y="14" type="curve" smooth="yes"/>
      <point x="987" y="135"/>
      <point x="907" y="205"/>
      <point x="728" y="265" type="curve" smooth="yes"/>
      <point x="694" y="277"/>
      <point x="619" y="293"/>
      <point x="619" y="306" type="curve" smooth="yes"/>
      <point x="619" y="311"/>
      <point x="623" y="317"/>
      <point x="669" y="317" type="curve"/>
      <point x="675" y="505" type="line"/>
      <point x="510" y="505"/>
      <point x="395" y="435"/>
      <point x="395" y="294" type="curve" smooth="yes"/>
      <point x="395" y="194"/>
      <point x="452" y="153"/>
      <point x="658" y="86" type="curve" smooth="yes"/>
      <point x="745" y="58"/>
      <point x="763" y="52"/>
      <point x="763" y="11" type="curve" smooth="yes"/>
      <point x="763" y="-35"/>
      <point x="741" y="-60"/>
      <point x="676" y="-60" type="curve" smooth="yes"/>
      <point x="393" y="-60" type="line" smooth="yes"/>
      <point x="311" y="-60"/>
      <point x="264" y="-22"/>
      <point x="264" y="31" type="curve" smooth="yes"/>
      <point x="264" y="52"/>
      <point x="271" y="105"/>
      <point x="283" y="181" type="curve"/>
      <point x="62" y="210" type="line"/>
      <point x="48" y="122"/>
      <point x="40" y="62"/>
      <point x="40" y="27" type="curve" smooth="yes"/>
      <point x="40" y="-124"/>
      <point x="193" y="-248"/>
    </contour>
    <contour>
      <point x="1117" y="0" type="line"/>
      <point x="1492" y="0" type="line"/>
      <point x="1492" y="188" type="line"/>
      <point x="1195" y="188" type="line"/>
      <point x="1341" y="66" type="line"/>
      <point x="1341" y="505" type="line"/>
      <point x="1117" y="505" type="line"/>
    </contour>
    <contour>
      <point x="669" y="317" type="line"/>
      <point x="1117" y="317" type="line"/>
      <point x="1117" y="505" type="line"/>
      <point x="675" y="505" type="line"/>
    </contour>
    <component base="connection_r" xOffset="1442"/>
  </outline>
</glyph>
<glyph name="alefMaksura_reh-ar.fina" format="2">
  <advance width="816"/>
  <anchor x="603" y="-60" name="bottom_1"/>
  <anchor x="86" y="-380" name="bottom_2"/>
  <anchor x="433" y="0" name="caret_1"/>
  <anchor x="603" y="573" name="top_1"/>
  <anchor x="178" y="573" name="top_2"/>
  <outline>
    <contour>
      <point x="491" y="0" type="line"/>
      <point x="816" y="0" type="line"/>
      <point x="816" y="188" type="line"/>
      <point x="569" y="188" type="line"/>
      <point x="715" y="66" type="line"/>
      <point x="715" y="505" type="line"/>
      <point x="491" y="505" type="line"/>
    </contour>
    <contour>
      <point x="289" y="216" type="line"/>
      <point x="491" y="216" type="line"/>
      <point x="491" y="404" type="line"/>
      <point x="289" y="404" type="line"/>
    </contour>
    <component base="reh-ar"/>
    <component base="connection_r" xOffset="766"/>
  </outline>
</glyph>
<glyph name="behDotless-ar.init.alt" format="2">
  <advance width="435"/>
  <anchor x="263" y="-60" name="bottom"/>
  <anchor x="263" y="573" name="top"/>
  <outline>
    <contour>
      <point x="0" y="0" type="line"/>
      <point x="375" y="0" type="line"/>
      <point x="375" y="505" type="line"/>
      <point x="151" y="505" type="line"/>
      <point x="151" y="66" type="line"/>
      <point x="297" y="188" type="line"/>
      <point x="0" y="188" type="line"/>
    </contour>
    <component base="connection_l"/>
  </outline>
</glyph>
<glyph name="cent.rvrn" format="2">
  <advance width="550"/>
  <outline>
    <contour>
      <point x="41" y="254" type="curve" smooth="yes"/>
      <point x="41" y="107"/>
      <point x="93" y="42"/>
      <point x="263" y="42" type="curve"/>
      <point x="263" y="-75" type="line"/>
      <point x="325" y="-75" type="line"/>
      <point x="325" y="44" type="line"/>
      <point x="417" y="50"/>
      <point x="464" y="56"/>
      <point x="502" y="64" type="curve"/>
      <point x="496" y="212" type="line"/>
      <point x="451" y="210"/>
      <point x="370" y="208"/>
      <point x="311" y="208" type="curve" smooth="yes"/>
      <point x="274" y="208"/>
      <point x="263" y="222"/>
      <point x="263" y="254" type="curve" smooth="yes"/>
      <point x="263" y="286"/>
      <point x="275" y="300"/>
      <point x="311" y="300" type="curve" smooth="yes"/>
      <point x="370" y="300"/>
      <point x="450" y="298"/>
      <point x="494" y="296" type="curve"/>
      <point x="500" y="446" type="line"/>
      <point x="460" y="454"/>
      <point x="389" y="462"/>
      <point x="325" y="464" type="curve"/>
      <point x="325" y="571" type="line"/>
      <point x="263" y="571" type="line"/>
      <point x="263" y="466" type="line"/>
      <point x="109" y="466"/>
      <point x="41" y="412"/>
    </contour>
  </outline>
</glyph>
<glyph name="connection_l" format="2">
  <advance width="50"/>
  <outline>
    <contour>
      <point x="0" y="0" type="curve"/>
      <point x="0" y="188" type="line"/>
      <point x="-13" y="188"/>
      <point x="-20" y="152"/>
      <point x="-20" y="94" type="curve" smooth="yes"/>
      <point x="-20" y="36"/>
      <point x="-13" y="0"/>
    </contour>
  </outline>
</glyph>
<glyph name="connection_r" format="2">
  <advance width="50"/>
  <outline>
    <contour>
      <point x="50" y="0" type="line"/>
      <point x="63" y="0"/>
      <point x="70" y="36"/>
      <point x="70" y="94" type="curve" smooth="yes"/>
      <point x="70" y="152"/>
      <point x="63" y="188"/>
      <point x="50" y="188" type="curve"/>
    </contour>
  </outline>
</glyph>
<glyph name="fehDotless-ar.fina" format="2">
  <advance width="1110"/>
  <outline>
    <contour>
      <point x="1009" y="0" type="line"/>
      <point x="1110" y="0" type="line"/>
      <point x="1110" y="188" type="line"/>
      <point x="1009" y="188" type="line"/>
    </contour>
    <component base="fehDotless-ar"/>
    <component base="connection_r" xOffset="1060"/>
  </outline>
</glyph>
<glyph name="five.pnum" format="2">
  <advance width="481"/>
  <outline>
    <contour>
      <point x="240" y="-9" type="curve" smooth="yes"/>
      <point x="381" y="-9"/>
      <point x="452" y="59"/>
      <point x="452" y="163" type="curve" smooth="yes"/>
      <point x="452" y="280"/>
      <point x="382" y="333"/>
      <point x="250" y="333" type="curve" smooth="yes"/>
      <point x="226" y="333"/>
      <point x="209" y="331"/>
      <point x="187" y="326" type="curve"/>
      <point x="191" y="362" type="line"/>
      <point x="432" y="362" type="line"/>
      <point x="432" y="524" type="line"/>
      <point x="41" y="524" type="line"/>
      <point x="19" y="203" type="line"/>
      <point x="130" y="174" type="line"/>
      <point x="153" y="182"/>
      <point x="181" y="187"/>
      <point x="210" y="187" type="curve" smooth="yes"/>
      <point x="252" y="187"/>
      <point x="276" y="179"/>
      <point x="276" y="160" type="curve" smooth="yes"/>
      <point x="276" y="141"/>
      <point x="251" y="134"/>
      <point x="212" y="134" type="curve" smooth="yes"/>
      <point x="170" y="134"/>
      <point x="77" y="150"/>
      <point x="16" y="166" type="curve"/>
      <point x="4" y="23" type="line"/>
      <point x="78" y="1"/>
      <point x="160" y="-9"/>
    </contour>
  </outline>
</glyph>
<glyph name="four-persian.urdu" format="2">
  <advance width="649"/>
  <outline>
    <contour>
      <point x="100" y="0" type="line"/>
      <point x="324" y="0" type="line"/>
      <point x="324" y="428" type="line" smooth="yes"/>
      <point x="324" y="458"/>
      <point x="345" y="481"/>
      <point x="373" y="481" type="curve" smooth="yes"/>
      <point x="401" y="481"/>
      <point x="422" y="458"/>
      <point x="422" y="428" type="curve"/>
      <point x="416" y="440" type="line"/>
      <point x="473" y="477"/>
      <point x="545" y="501"/>
      <point x="619" y="501" type="curve"/>
      <point x="619" y="689" type="line"/>
      <point x="531" y="689"/>
      <point x="444" y="661"/>
      <point x="377" y="616" type="curve"/>
      <point x="476" y="607" type="line"/>
      <point x="434" y="646"/>
      <point x="380" y="669"/>
      <point x="322" y="669" type="curve" smooth="yes"/>
      <point x="192" y="669"/>
      <point x="100" y="566"/>
      <point x="100" y="428" type="curve" smooth="yes"/>
    </contour>
  </outline>
</glyph>
<glyph name="hah-ar.fina.alt" format="2">
  <advance width="702"/>
  <outline>
    <contour>
      <point x="601" y="0" type="line"/>
      <point x="702" y="0" type="line"/>
      <point x="702" y="188" type="line"/>
      <point x="601" y="188" type="line"/>
    </contour>
    <component base="connection_r" xOffset="652"/>
    <component base="hah-ar.alt"/>
  </outline>
</glyph>
<glyph name="kafDotless-ar.fina" format="2">
  <advance width="988"/>
  <outline>
    <contour>
      <point x="887" y="0" type="line"/>
      <point x="988" y="0" type="line"/>
      <point x="988" y="188" type="line"/>
      <point x="887" y="188" type="line"/>
    </contour>
    <component base="kafDotless-ar"/>
    <component base="connection_r" xOffset="938"/>
  </outline>
</glyph>
<glyph name="kafDotless-ar" format="2">
  <advance width="947"/>
  <anchor x="464" y="-100" name="bottom"/>
  <anchor x="464" y="408" name="top"/>
  <outline>
    <contour>
      <point x="420" y="0" type="curve" smooth="yes"/>
      <point x="887" y="0" type="line"/>
      <point x="887" y="690" type="line"/>
      <point x="663" y="690" type="line"/>
      <point x="663" y="66" type="line"/>
      <point x="809" y="188" type="line"/>
      <point x="438" y="188" type="line" smooth="yes"/>
      <point x="348" y="188"/>
      <point x="264" y="199"/>
      <point x="264" y="309" type="curve" smooth="yes"/>
      <point x="264" y="346"/>
      <point x="273" y="394"/>
      <point x="280" y="425" type="curve"/>
      <point x="63" y="468" type="line"/>
      <point x="55" y="436"/>
      <point x="40" y="369"/>
      <point x="40" y="305" type="curve" smooth="yes"/>
      <point x="40" y="111"/>
      <point x="181" y="0"/>
    </contour>
  </outline>
</glyph>
<glyph name="macron.cap" format="2">
  <advance width="443"/>
  <outline>
    <contour>
      <point x="63" y="713" type="line"/>
      <point x="384" y="713" type="line"/>
      <point x="384" y="849" type="line"/>
      <point x="63" y="849" type="line"/>
    </contour>
  </outline>
</glyph>
<glyph name="nine.pnum" format="2">
  <advance width="461"/>
  <outline>
    <contour>
      <point x="217" y="-9" type="curve" smooth="yes"/>
      <point x="343" y="-9"/>
      <point x="455" y="59"/>
      <point x="455" y="256" type="curve" smooth="yes"/>
      <point x="455" y="453"/>
      <point x="374" y="529"/>
      <point x="232" y="529" type="curve" smooth="yes"/>
      <point x="96" y="529"/>
      <point x="-1" y="465"/>
      <point x="-1" y="347" type="curve" smooth="yes"/>
      <point x="-1" y="214"/>
      <point x="80" y="167"/>
      <point x="198" y="167" type="curve" smooth="yes"/>
      <point x="230" y="167"/>
      <point x="264" y="173"/>
      <point x="287" y="182" type="curve"/>
      <point x="284" y="155"/>
      <point x="273" y="144"/>
      <point x="217" y="144" type="curve" smooth="yes"/>
      <point x="188" y="144"/>
      <point x="150" y="146"/>
      <point x="36" y="155" type="curve"/>
      <point x="24" y="5" type="line"/>
      <point x="111" y="-6"/>
      <point x="172" y="-9"/>
    </contour>
    <contour>
      <point x="220" y="312" type="curve" smooth="yes"/>
      <point x="183" y="312"/>
      <point x="163" y="320"/>
      <point x="163" y="345" type="curve" smooth="yes"/>
      <point x="163" y="368"/>
      <point x="188" y="376"/>
      <point x="222" y="376" type="curve" smooth="yes"/>
      <point x="251" y="376"/>
      <point x="279" y="356"/>
      <point x="284" y="327" type="curve"/>
      <point x="258" y="316"/>
      <point x="236" y="312"/>
    </contour>
  </outline>
</glyph>
<glyph name="one.pnum" format="2">
  <advance width="364"/>
  <outline>
    <contour>
      <point x="162" y="0" type="line"/>
      <point x="326" y="0" type="line"/>
      <point x="326" y="520" type="line"/>
      <point x="199" y="520" type="line"/>
      <point x="-21" y="391" type="line"/>
      <point x="40" y="252" type="line"/>
      <point x="162" y="316" type="line"/>
    </contour>
  </outline>
</glyph>
<glyph name="oslash.rvrn" format="2">
  <advance width="564"/>
  <outline>
    <contour>
      <point x="107" y="-101" type="line"/>
      <point x="161" y="-123" type="line"/>
      <point x="452" y="584" type="line"/>
      <point x="399" y="605" type="line"/>
    </contour>
    <component base="o"/>
  </outline>
</glyph>
<glyph name="parenright.cap" format="2">
  <advance width="326"/>
  <outline>
    <contour>
      <point x="211" y="772" type="curve"/>
      <point x="8" y="772" type="line"/>
      <point x="40" y="682"/>
      <point x="83" y="504"/>
      <point x="83" y="346" type="curve" smooth="yes"/>
      <point x="83" y="186"/>
      <point x="40" y="-4"/>
      <point x="8" y="-103" type="curve"/>
      <point x="211" y="-103" type="line"/>
      <point x="254" y="-22"/>
      <point x="310" y="156"/>
      <point x="310" y="346" type="curve" smooth="yes"/>
      <point x="310" y="536"/>
      <point x="254" y="701"/>
    </contour>
  </outline>
</glyph>
<glyph name="qafDotless-ar.fina" format="2">
  <advance width="1033"/>
  <outline>
    <contour>
      <point x="932" y="0" type="line"/>
      <point x="1033" y="0" type="line"/>
      <point x="1033" y="188" type="line"/>
      <point x="932" y="188" type="line"/>
    </contour>
    <component base="qafDotless-ar"/>
    <component base="connection_r" xOffset="983"/>
  </outline>
</glyph>
<glyph name="questiondown.cap" format="2">
  <advance width="447"/>
  <outline>
    <contour>
      <point x="347" y="453" type="curve"/>
      <point x="172" y="453" type="line"/>
      <point x="171" y="434" type="line" smooth="yes"/>
      <point x="170" y="417"/>
      <point x="153" y="396"/>
      <point x="92" y="353" type="curve" smooth="yes"/>
      <point x="28" y="308"/>
      <point x="4" y="278"/>
      <point x="4" y="174" type="curve" smooth="yes"/>
      <point x="4" y="22"/>
      <point x="71" y="-33"/>
      <point x="228" y="-33" type="curve" smooth="yes"/>
      <point x="302" y="-33"/>
      <point x="394" y="-12"/>
      <point x="443" y="4" type="curve"/>
      <point x="436" y="161" type="line"/>
      <point x="403" y="155"/>
      <point x="342" y="147"/>
      <point x="293" y="147" type="curve" smooth="yes"/>
      <point x="246" y="147"/>
      <point x="230" y="158"/>
      <point x="230" y="182" type="curve" smooth="yes"/>
      <point x="230" y="210"/>
      <point x="237" y="217"/>
      <point x="283" y="251" type="curve" smooth="yes"/>
      <point x="355" y="304"/>
      <point x="370" y="326"/>
      <point x="370" y="374" type="curve" smooth="yes"/>
      <point x="370" y="409"/>
      <point x="357" y="440"/>
    </contour>
    <contour>
      <point x="372" y="670" type="line"/>
      <point x="144" y="670" type="line"/>
      <point x="144" y="490" type="line"/>
      <point x="372" y="490" type="line"/>
    </contour>
  </outline>
</glyph>
<glyph name="ring.cap" format="2">
  <advance width="496"/>
  <outline>
    <contour>
      <point x="268" y="702" type="curve" smooth="yes"/>
      <point x="351" y="702"/>
      <point x="405" y="734"/>
      <point x="405" y="798" type="curve" smooth="yes"/>
      <point x="405" y="867"/>
      <point x="346" y="894"/>
      <point x="268" y="894" type="curve" smooth="yes"/>
      <point x="189" y="894"/>
      <point x="131" y="867"/>
      <point x="131" y="798" type="curve" smooth="yes"/>
      <point x="131" y="729"/>
      <point x="189" y="702"/>
    </contour>
    <contour>
      <point x="269" y="776" type="curve" smooth="yes"/>
      <point x="253" y="776"/>
      <point x="238" y="783"/>
      <point x="238" y="798" type="curve" smooth="yes"/>
      <point x="238" y="812"/>
      <point x="253" y="819"/>
      <point x="269" y="819" type="curve" smooth="yes"/>
      <point x="285" y="819"/>
      <point x="299" y="812"/>
      <point x="299" y="798" type="curve" smooth="yes"/>
      <point x="299" y="783"/>
      <point x="285" y="776"/>
    </contour>
  </outline>
</glyph>
<glyph name="six.pnum" format="2">
  <advance width="490"/>
  <outline>
    <contour>
      <point x="231" y="-9" type="curve" smooth="yes"/>
      <point x="367" y="-9"/>
      <point x="464" y="55"/>
      <point x="464" y="173" type="curve" smooth="yes"/>
      <point x="464" y="306"/>
      <point x="383" y="343"/>
      <point x="265" y="343" type="curve" smooth="yes"/>
      <point x="233" y="343"/>
      <point x="199" y="337"/>
      <point x="176" y="328" type="curve"/>
      <point x="179" y="355"/>
      <point x="190" y="376"/>
      <point x="246" y="376" type="curve" smooth="yes"/>
      <point x="275" y="376"/>
      <point x="313" y="374"/>
      <point x="427" y="365" type="curve"/>
      <point x="439" y="515" type="line"/>
      <point x="352" y="526"/>
      <point x="291" y="529"/>
      <point x="246" y="529" type="curve" smooth="yes"/>
      <point x="120" y="529"/>
      <point x="12" y="461"/>
      <point x="12" y="264" type="curve" smooth="yes"/>
      <point x="12" y="67"/>
      <point x="89" y="-9"/>
    </contour>
    <contour>
      <point x="241" y="144" type="curve" smooth="yes"/>
      <point x="212" y="144"/>
      <point x="184" y="158"/>
      <point x="179" y="187" type="curve"/>
      <point x="205" y="195"/>
      <point x="227" y="198"/>
      <point x="243" y="198" type="curve" smooth="yes"/>
      <point x="280" y="198"/>
      <point x="300" y="189"/>
      <point x="300" y="173" type="curve" smooth="yes"/>
      <point x="300" y="150"/>
      <point x="275" y="144"/>
    </contour>
  </outline>
</glyph>
<glyph name="threedotsdowncenter-ar.alt" format="2">
  <advance width="495"/>
  <anchor x="247" y="284" name="_center"/>
  <outline>
    <contour>
      <point x="201" y="269" type="line"/>
      <point x="201" y="208" type="line"/>
      <point x="292" y="208" type="line"/>
      <point x="292" y="269" type="line"/>
    </contour>
    <contour>
      <point x="134" y="360" type="line"/>
      <point x="134" y="285" type="line"/>
      <point x="236" y="285" type="line"/>
      <point x="236" y="360" type="line"/>
    </contour>
    <contour>
      <point x="257" y="360" type="line"/>
      <point x="257" y="285" type="line"/>
      <point x="360" y="285" type="line"/>
      <point x="360" y="360" type="line"/>
    </contour>
  </outline>
</glyph>
<glyph name="tilde.cap" format="2">
  <advance width="481"/>
  <outline>
    <contour>
      <point x="295" y="712" type="curve" smooth="yes"/>
      <point x="334" y="712"/>
      <point x="379" y="745"/>
      <point x="402" y="770" type="curve"/>
      <point x="373" y="877" type="line"/>
      <point x="349" y="867"/>
      <point x="310" y="854"/>
      <point x="291" y="854" type="curve" smooth="yes"/>
      <point x="280" y="854"/>
      <point x="263" y="859"/>
      <point x="244" y="865" type="curve"/>
      <point x="216" y="875"/>
      <point x="180" y="886"/>
      <point x="144" y="886" type="curve" smooth="yes"/>
      <point x="105" y="886"/>
      <point x="60" y="852"/>
      <point x="37" y="827" type="curve"/>
      <point x="66" y="721" type="line"/>
      <point x="88" y="732"/>
      <point x="126" y="746"/>
      <point x="146" y="746" type="curve" smooth="yes"/>
      <point x="161" y="746"/>
      <point x="181" y="739"/>
      <point x="204" y="732" type="curve" smooth="yes"/>
      <point x="233" y="723"/>
      <point x="266" y="712"/>
    </contour>
  </outline>
</glyph>
